<?xml version="1.0" encoding="utf-8"?>
<!-- Generator: Adobe Illustrator 23.1.1, SVG Export Plug-In . SVG Version: 6.00 Build 0)  -->
<svg version="1.1" id="Layer_1" xmlns="http://www.w3.org/2000/svg" xmlns:xlink="http://www.w3.org/1999/xlink" x="0px" y="0px"
	 viewBox="0 0 100 125" style="enable-background:new 0 0 100 125;" xml:space="preserve">
<title>31</title>
<path d="M81.7,23.7c0.4-1.3,0.7-2.3,1-3.1c0.2-0.8,0.4-1.6,0.8-2.5l0.5-1.4l-2.3-0.9c1.3-1.1,1.4-1.4,1.4-1.8c0-0.2,1.1-5.8-0.9-7.4
	C80.3,5,70.7,4.8,62.4,10.4l-0.3,0.2L61.9,11c-0.3,0.5-2.2,4-3.6,7c-0.2-0.9-0.2-1.8-0.3-2.7v-2.6L55.9,14
	c-3.3,2-12.2,7.3-16.6,16.3c-1.1,2.5-2,5.2-2.6,7.9c-0.1-0.4-0.2-0.7-0.2-1.1L36,30.5l-2.4,6.3c-1.4,3.6-2.2,7.9,0.5,15.2
	c-0.7,0-1.5-0.1-2.1-0.5l-3-1.9l0.8,3.5c0.5,1.9,1.2,3.8,2.3,5.5c1,1.5,1.6,3.2,1.9,5c-1.2,3.1-2.2,6.3-3.1,9.5
	c-0.1,0.4-0.2,0.9-0.2,1.3H16.9c-1.2,0-2.2,1-2.2,2.2v3.8c0,1.2,1,2.2,2.2,2.2H18v2.3c0,0.8-0.4,1.6-1.1,2.1
	c-3.7,2.5-15.3,10.8-15.3,16.1V121c0,2.3,1.8,4.1,4.1,4.1l0,0h54.1c2.3,0,4.1-1.8,4.1-4.1l0,0v-17.9c0-5.2-11.6-13.5-15.3-16.1
	c-0.7-0.5-1.1-1.3-1.1-2.1v-2.3h1.1c1.2,0,2.2-1,2.2-2.2v-3.8c0-1.2-1-2.2-2.2-2.2l0,0h-15c0.1-0.3,0.2-0.7,0.3-1
	c0.8-3.1,1.8-6.2,3.1-9.2c2.6-0.6,3.3-0.8,5.3-0.3c2.4,0.7,5,0.8,7.4,0.2l2.6-0.7l-2-1.8c-0.4-0.4-0.8-0.9-1-1.5
	c2.1,0.8,4.4,0.8,6.4,0c5.7-2.4,11-5.1,17.4-13.7l1.8-2.4h-3c-1.6,0-3.3-0.3-4.8-0.7c4.1-1,8.6-2.7,9.2-3.4
	c2.3-2.5,4.8-8.8,5.3-12.1l0.3-2l-2,0.3c0,0-0.2,0-0.5,0.1C80.2,25.7,81.1,24.8,81.7,23.7z M60.8,103.1v3.4H4.5v-3.4
	c0-2,4.9-7.4,14-13.6c1.5-1,2.4-2.7,2.4-4.6h23.5c0,1.8,0.9,3.5,2.4,4.6C55.9,95.6,60.8,101.1,60.8,103.1z M80.2,13.1
	c-0.4,0.4-1.5,1.3-2.4,2l-2.1,1.6l4.5,1.7c-0.1,0.4-0.3,0.9-0.4,1.3c-0.2,0.8-0.5,1.7-0.9,2.9c-2.2,2-4.6,3.6-7.2,4.9l-8,3.7
	l8.7-0.9c1.3-0.1,3.8-0.5,5.6-0.8c-0.9,3-2.2,5.8-4,8.4c-1.3,0.7-8.5,3.3-11.9,3.2l-4-0.1l3.1,2.7c2.2,1.7,4.9,2.8,7.8,3.1
	c-3.8,4.8-8.8,8.4-14.5,10.6c-3.3,1.4-7-1.5-7.1-1.5L44,53.2l1,4.2c0.4,1.5,0.9,2.9,1.6,4.2c-1.3,0-2.5-0.2-3.7-0.5
	c-1.1-0.3-2.3-0.5-3.4-0.5c-0.3,0-0.6,0-0.9,0.1C45,47.7,55.4,36,65.2,26c2.3-2.5,4.3-5.1,6-8c-3,1.7-5.8,3.8-8.3,6.1
	C52.7,34.3,42.4,45.2,35.8,59.4c-0.4-0.8-0.7-1.5-1.1-2.3c-0.4-0.7-0.8-1.4-1.1-2.2c1.7,0.1,3.6-2.3,3.7-2.3c0,0-2.1-7.7-1.8-10.4
	c0.4,0.5,0.8,0.9,1.2,1.3l2.2,2l0.2-3c0.4-3.8,1.4-7.4,3-10.9c3.3-6.8,9.6-11.4,13.4-13.8c0.2,1.9,0.8,3.7,1.8,5.3l2,2.5l0.6-3.2
	c0.4-2,3.3-7.5,4.6-9.8C71.6,8,78.9,8.3,80.3,8.8C80.4,10.3,80.4,11.7,80.2,13.1z"/>
</svg>
