<?xml version="1.0" encoding="utf-8"?>
<!-- Generator: Adobe Illustrator 23.1.1, SVG Export Plug-In . SVG Version: 6.00 Build 0)  -->
<svg version="1.1" id="Layer_1" xmlns="http://www.w3.org/2000/svg" xmlns:xlink="http://www.w3.org/1999/xlink" x="0px" y="0px"
	 viewBox="0 0 98.3 55.2" style="enable-background:new 0 0 98.3 55.2;" xml:space="preserve">
<path d="M96.3,21.9C84.9,8.3,68.3,0.4,50.7,0c-0.5,0-1,0-1.5,0s-1,0-1.5,0C30.1,0.4,13.5,8.3,2.1,21.9c-2.8,3.3-2.8,8.1,0,11.4
	c11.4,13.6,28,21.5,45.6,21.9c0.5,0,1,0,1.5,0s1,0,1.5,0c17.6-0.4,34.2-8.3,45.6-21.9C99,30,99,25.2,96.3,21.9z M49.2,4
	c0.4,0,0.8,0,1.3,0c12.4,0.7,22.4,11,22.4,23.6c0,7-3.1,13.4-8,17.7c-1.3,0-2.4-0.1-3.5-0.4L61,44.8c-0.7-0.2-1.5-0.4-2.2-0.5
	c5.8-3.3,9.7-9.5,9.7-16.7c0-10.6-8.6-19.2-19.2-19.2S30.1,17,30.1,27.6c0,8.9,6.1,16.5,14.4,18.6c-4,1-8.5-0.1-12.9-3.3
	c-0.2-0.2-0.5-0.3-0.7-0.4c-3.3-4.1-5.3-9.2-5.3-14.9C25.6,15,35.5,4.7,48,4C48.3,4,48.7,4,49.2,4z M67.5,48.2
	C62,50,56.3,51,50.4,51.2c-0.4,0-0.8,0-1.3,0s-0.8,0-1.3,0s-1.1,0-1.6,0c-1.3-0.1-2.6-0.2-3.9-0.3c-4-0.5-7.8-1.3-11.6-2.6
	c-4.3-1.5-8.4-3.4-12.3-5.8c0.8,0.1,1.6,0.1,2.4,0.1c1.9,0.1,3.7,0.2,5.4,0.5c1.4,0.3,2.7,0.8,3.9,1.7c2.5,1.8,5.1,3,7.6,3.6
	c3.4,0.8,6.7,0.5,9.6-0.8c0.6-0.3,1.2-0.5,1.7-0.7c2.2-0.8,4-1,5.8-0.9s3.5,0.5,5.4,1l0.4,0.1c0.4,0.1,0.9,0.2,1.4,0.3
	c1.9,0.3,4.1,0.3,6.3,0c0.7-0.1,1.5-0.2,2.2-0.3C69.6,47.5,68.6,47.9,67.5,48.2z M38.4,23.1c-0.4,0-0.7-0.1-1-0.3
	c-0.9-0.6-1.2-1.8-0.7-2.7c2.7-4.4,7.4-7,12.5-7c1.1,0,2,0.9,2,2s-0.9,2-2,2c-3.7,0-7.1,1.9-9.1,5.1C39.7,22.7,39,23.1,38.4,23.1z
	 M38.5,27.6c0,0.5-0.2,1-0.6,1.4s-0.9,0.6-1.4,0.6c-0.3,0-0.5,0-0.8-0.1c-0.2-0.1-0.5-0.2-0.6-0.4c-0.4-0.4-0.6-0.9-0.6-1.4
	c0-0.1,0-0.3,0-0.4s0.1-0.3,0.1-0.4s0.1-0.2,0.2-0.3c0.1-0.1,0.1-0.2,0.2-0.3c0.1-0.1,0.2-0.2,0.3-0.2c0.1-0.1,0.2-0.1,0.4-0.2
	s0.2-0.1,0.4-0.1c0.3,0,0.5,0,0.8,0c0.1,0,0.3,0.1,0.4,0.1s0.2,0.1,0.3,0.2c0.1,0.1,0.2,0.2,0.3,0.2c0.1,0.1,0.2,0.2,0.2,0.3
	c0.1,0.1,0.1,0.2,0.2,0.3c0.1,0.1,0.1,0.2,0.1,0.4C38.5,27.4,38.5,27.5,38.5,27.6z M58.5,32.7c0.8-1.5,1.3-3.3,1.3-5
	c0-1.1,0.9-2,2-2s2,0.9,2,2c0,2.4-0.6,4.8-1.8,7c-0.4,0.7-1,1-1.8,1c-0.3,0-0.6-0.1-1-0.2C58.3,34.9,58,33.6,58.5,32.7z M5.1,30.7
	c-1.5-1.8-1.5-4.4,0-6.2C12,16.3,20.9,10.3,30.8,7c-5.7,5.1-9.3,12.4-9.3,20.6c0,4.7,1.2,9.1,3.2,12.9c-1.3-0.1-2.5-0.2-3.8-0.3
	c-2.3-0.1-4.6-0.2-6.7-0.8C10.9,36.9,7.8,34,5.1,30.7z M79.3,42.7c-2.4,0.8-5.4,1.6-8.6,2.1c3.8-4.7,6-10.7,6-17.2
	c0-8.2-3.6-15.6-9.3-20.6c9.5,3.2,18,8.8,24.8,16.5c-0.3,0-0.7-0.1-1-0.1c-4.3,0-7.7,3.5-7.7,7.7c0,2.5,1.2,4.8,3.1,6.2
	C84.3,39.3,81.9,41.1,79.3,42.7z M93.2,30.7c-1.5,1.8-3.1,3.5-4.8,5.1c-1.6-1-2.6-2.7-2.6-4.6c0-3,2.5-5.5,5.5-5.5
	c1.1,0,2.1,0.3,2.9,0.9C94.5,28,94.2,29.5,93.2,30.7z"/>
</svg>
