<?xml version="1.0" encoding="utf-8"?>
<!-- Generator: Adobe Illustrator 23.1.1, SVG Export Plug-In . SVG Version: 6.00 Build 0)  -->
<svg version="1.1" id="Layer_1" xmlns="http://www.w3.org/2000/svg" xmlns:xlink="http://www.w3.org/1999/xlink" x="0px" y="0px"
	 viewBox="0 0 78 76.6" style="enable-background:new 0 0 78 76.6;" xml:space="preserve">
<g>
	<path d="M73,28.7c-1.4,1.3-2.8,2.5-4.1,3.7c-0.2,0.2-0.5,0.4-0.7,0.7c-2.2,2.8-5,5-7.6,7.3c-1.7,1.6-3.2,3.3-5,4.9
		c-2.2,2-4.4,4-6.7,5.9c-2.5,2.1-4.8,4.4-7.2,6.6c-1.4,1.3-3,2.5-4.4,3.8c-2.5,2.3-5.3,4.4-7.8,6.7c-1.7,1.4-3.3,3-5.3,4.1
		c-0.5,0.2-0.8,0.5-0.9,1.1c-0.2,0.9-0.8,1.3-1.5,1.6c-0.4,0.2-0.7,0.2-1,0.4c-1.6,1.5-3.4,1-5.1,0.8c-1.5-0.2-3-0.6-4.4-1.2
		c-2.4-1.1-4.7-2.4-6.5-4.5c-0.2-0.3-0.4-0.5-0.8-0.8c-0.8-0.7-1.3-1.4-1.4-2.4c-0.1-0.4-0.3-0.9-0.5-1.3c-1.9-3.8-2.1-8-1.9-12.3
		c0-0.8,0.5-1.5,0.6-2.3c0.1-0.3,0.5-0.8-0.2-1.2c-0.1,0,0-0.2,0-0.3c2-1.6,3.7-3.7,5.7-5.4c2.5-2.1,4.9-4.5,7.2-6.9
		c1.8-1.8,3.7-3.4,5.4-5.3c3.3-3.6,7-6.7,10.6-10c3.7-3.2,7.1-6.7,10.7-9.9c3.2-2.8,6.5-5.3,9.9-7.9c1.2-0.9,2.3-1.9,3.7-2.6
		C56.2,1,58.7,0.5,61.2,0c1.6-0.2,3.1-0.1,4.5,0.5c0.2,0.1,0.5,0.1,0.8,0.1c1.7-0.3,3.2,0.2,4.7,0.9c0.6,0.3,1.3,0.5,1.3,1.4
		c0,0.2,0.2,0.2,0.3,0.4c1.1,1.2,1.8,2.5,2.5,3.9c0.6,1.2,1.1,2.5,1.6,3.6c0,0.2,0.2,0.5,0.2,0.6c1,0.8,0.8,2,0.8,3.2
		c-0.1,0.8-0.1,1.8-0.1,2.6c0,1.6-0.6,3.1-1.3,4.5c-0.8,1.5-1.5,3.1-1.8,4.8c0,0.4-0.5,0.9-1,1.3C73.6,28.1,73.2,28.4,73,28.7z
		 M71.9,6.8C72,6.3,72,5.9,71.3,5.8C71.3,6.3,71.6,6.6,71.9,6.8C72.5,7,72.7,7.6,73.1,8c0.5,0.4,0.5,1,0.8,1.4
		c0.2,0.5,0.5,1,0.9,1.5c0.2-0.3,0.1-0.5,0.1-0.6c-0.7-1.2-1.5-2.4-2.5-3.4C72.4,6.7,72.1,6.9,71.9,6.8z M68.2,25.1
		c0,0.2-0.3,0.5,0,0.9c0.4-0.2,0.5-0.4,0.5-0.9C68.4,24.8,68.3,25.1,68.2,25.1c0.3-0.7,1.1-1.5,0.6-2.5c-0.4,0.1-0.7,0.4-1,0.7
		c-0.4,0.5-0.2,0.8-0.1,1.3C67.6,25,67.8,25.2,68.2,25.1z M67.5,17.9c0.1-0.1,0.1,0,0.2,0.1c0.1,0.2,0.2,0.1,0.4,0
		c0.1-0.1,0.1-0.2,0-0.3c-0.2-0.1-0.2,0-0.3,0.1C67.7,17.9,67.6,17.9,67.5,17.9c0-0.5,0.4-0.7,0.9-0.8c0.7-0.2,0.8-0.9,1.2-1.4
		c0.3-0.4,0-0.8-0.2-1.1c-1,0.4-1.5,1.2-2.1,2c-0.7,0.7-0.7,1.2-0.1,2.3C67.2,18.4,67.4,18.1,67.5,17.9z M74.8,14.9
		c0.1,0.2,0.2,0.3,0.4,0.3c0.2-0.8,0-1.6-0.4-2.4c0.3-0.3,0-0.6-0.1-0.9c-0.4-1.2-1.1-2.3-1.8-3.4C72,7.4,71,6.4,70.3,5.1
		c-0.1-0.3-0.4-0.5-0.7-0.7c-0.3-0.3-1.2,0.2-1,0.5c0.6,0.8-0.3,0.5-0.5,0.9c-0.1,0.5-1,0.7-0.6,1.4c0.1,0.2,0,0.4-0.1,0.5
		c-1.5,1-2.1,2.6-3.1,4c-0.3,0.3-0.3,0.7-0.8,0.9c0.2-0.8,0.9-1.4,1-2.3c-0.5,0.4-0.9,0.8-1.3,1.1c-0.9,0.7-1.8,1.2-1.5,2.6
		c0.1,0.1-0.1,0.2-0.2,0.4c-0.2,0.4-0.3,0.9-1,0.8c-0.6-0.1-0.9-0.6-0.9-1.1c-0.1-0.7,0.5-0.9,0.9-1c0.3-0.1,0.7-0.1,0.8-0.5
		c0.2-0.8,0.8-1.4,0.9-2c0-0.4-0.4-0.8-0.7-0.9c-0.7-0.1-0.9-0.6-1.2-0.9c-0.2-0.2-0.4-0.3-0.7-0.5C59.3,8,59,8.1,58.9,8.5
		c0.4,0.2,0.8,0.5,1.2,0.9c-0.3-0.1-0.6-0.1-0.7-0.1c-1-0.4-1.8-0.1-2.6,0.6c-0.2,0.2-0.5,0.7-1,0.5c0-0.8,0.8-0.9,1.2-1.4
		c-1.4-0.6-1.8-0.5-2.4,0.7c-0.3,0.6-0.8,1-1.4,1c-0.7,0.1-1.1-0.4-1.2-1.1c0-0.1,0-0.3-0.2-0.2c-1.1,0.9-2.2,1.7-3.2,2.6
		c0.2-0.8,1.3-1.1,1.1-2.2c-0.5,0.2-1,0.4-1.2,0.8c-0.4,0.8-1.2,1.4-1.5,2.3c-0.1,0.2-0.3,0.3-0.4,0.2c-0.2-0.1,0-0.4,0-0.5
		c0-0.1,0.3-0.2,0-0.4c-0.7,0.6-1.5,1-2,1.7c-0.5,0.9-1.4,1.5-2.3,1.9c0.7-1.1,1.9-1.8,2-3.3c-0.7,0.2-1.6,0.6-1.6,1.2
		c0,0.8-0.5,1.2-0.8,1.6c-0.2,0.3-0.6,0.5-0.1,0.8c0.1,0,0.1,0.2,0,0.2c-0.9,0-1,1-1.9,1.4c0.6-1.1,1.1-2,1.6-3
		c-0.4,0-0.5,0.4-1,0.4c0.6-1.1,1.4-2,2.4-2.8c2.1-1.4,4.2-2.7,6.4-4c0.1-0.1,0.4-0.2,0.4-0.2c0.4,0.7,0.7,0.1,0.8-0.1
		c0.8-1,1-1.2,2.3-0.8c0.3,0,0.5,0,0.6-0.2c0.2-0.3,0.4-0.5,0.5-0.8c0.4-0.7,1-1.2,1.8-1.9c-0.4,1.4-1.4,2-1.8,3
		C55,7.7,55,7.7,55.3,7c0.6-1.1,1.1-2.2,2.4-2.6c-0.5,0.9-1.3,1.8-1.8,3.1c1.5-0.7,2.3-1.9,2.9-3.2c0.4,0.2,0.3,0.9,0.9,0.5
		c0.4-0.3,0.8-0.5,1.3-0.9c-1.4-0.4-2.7-0.2-3.8-0.9c1.8,0,3.5,0.3,5.3,0.8c-0.5,0.5-0.9,1-1.2,1.4C61.2,5.3,61,5.4,61,5.7
		c-0.1,0.8-0.1,0.8-0.3,1C60.4,7,60.3,7.3,60,7.6c-0.2,0.3-0.1,0.5,0.2,0.7c0.2,0.1,0.5,0.4,0.8,0.2c0.5-0.4,1.2-0.9,1.3-1.7
		c0-0.1-0.2-0.2,0-0.4c0.9-0.7,1.4-1.6,2.1-2.5c-0.1,1.1-1,1.6-1.3,2.6c0.4,0,0.6-0.6,1-0.3c0,0.1-0.2,0.3-0.2,0.4
		c-0.2,0.1-0.6,0.2-0.2,0.5c0.3,0.2,0.5,0.3,0.9,0c0.2-0.3,0.4-0.5,0.6-0.7c0.3-0.5,0.7-0.8,1.2-1.1c0.1,0.7-0.8,0.8-0.7,1.4
		c0.6-0.2,0.9-0.8,1.3-1.2c0.3-0.2,0.3-0.5-0.1-0.7c-0.3-0.2-0.6-0.4-0.9-0.6c-1-0.6-2.1-1.2-3.4-1.7c0.8-0.3,1.2-0.1,1.5,0.2
		c1,0.6,2,1.1,2.9,1.8c0.5,0.5,1,0.3,1.3-0.4c-0.1-0.4-0.7,0.1-0.9-0.3C68,3,68.8,3.8,69.3,3.4c-1-0.8-1-0.8-1.9-0.6
		c-0.2,0-0.7,0.1-0.6,0c-0.4-0.7-1.1-0.4-1.7-0.6c-0.3,0-0.5,0-0.5-0.2c0-0.6-0.5-0.4-0.8-0.4c-0.2,0-0.5,0.3-0.8,0.1
		c-1.1-0.8-2.2-0.3-3.3,0.1c-0.4,0.2-0.8,0.5-1.3,0.4C57,1.9,56,2.5,55,3.2c-1.7,0.9-3.2,2.3-4.8,3.4c-2.5,1.8-4.9,3.8-7.3,5.8
		c-3.2,2.7-6.1,5.7-9.4,8.3c-0.2,0.1-0.4,0.3-0.5,0.5c-0.2,0.3-0.4,0.5,0.1,0.7c1.3-1.2,2.8-2.1,4-3.5c0.3,0.4,0.1,0.6,0,0.8
		c-0.8,1-1.4,2-1.9,3.2c-0.3,0.6-0.8,1-1.3,1.4c-0.5,0.4-0.9,0.7-1,1.4c1.6-0.1,2-1.7,3.2-2.1c-0.7,0.8-1.3,1.6-2,2.2
		c-0.5,0.4-0.3,1.2-0.7,1.6c-0.4,0.5-1.3,0-1.7,0.8c-0.1,0.2-0.4,0.6-0.8,0.3c1.3-1.3,1.3-1.3,1.1-2.6c-2.2,2.1-4.3,4.3-6.4,6.2
		c-1,0.9-1.5,2.2-3,2.6c0.3-1,1-1.7,1.1-2.8c-1.9,1.4-2.9,3.4-4,5.3c-0.5-0.6,0.3-0.9,0.1-1.3c-1.9,0.7-1.9,2.7-3.1,4
		c-0.4-0.6,0-0.9,0.1-1.1c0.2-0.5,0.5-1,0.7-1.5c0-0.1,0-0.3,0-0.4c-0.1-0.2-0.3-0.2-0.3-0.1c-0.8,0.5-1.8,1-1.8,1.7
		c-0.2,0.9-0.7,1.4-1,2.2c-0.5,1-1,1.9-1.1,3.1c0,0.4-0.3,0.9-0.5,1.3C12.5,45,12.3,45.1,12,45c-0.3-0.2-0.5-0.3-0.5-0.6
		c0-0.6,0.2-1.3,0.7-1.7c0.9-0.7,1.6-2.3,1.7-3.5c-1.2,0.9-1.9,2-3,3c0.6,0.1,0.7-0.4,1-0.2c-0.1,0.5-0.6,0.7-0.9,1
		c-0.2,0.2-0.6,0.5-0.6,0.7c-0.1,1.1-0.9,1.6-1.1,2.6c-0.1,0.2-0.2,0.5-0.6,0.4c-0.2-0.5,0.5-0.9,0.4-1.5c-0.4,0.1-0.7,0.3-0.8,0.6
		c-0.4,1.3-1.2,2.4-1.7,3.5c-0.2,0.3-0.3,0.5-0.7,0.1c0.3-0.9,1-1.6,1-2.6c-0.5,0.9-1.7,1.4-2.1,2.4c0.2,0.1,0.4-0.3,0.7-0.1
		c-1,1.3-2.5,2.3-3,4.1c0.3,0.1,0.7-0.4,0.9,0c0.2,0.4-0.2,0.4-0.4,0.6c-0.5,0.4-0.8,0.9-0.8,1.7c1.4-0.5,1.5-0.5,2.1-1.7
		c0.3-0.6,0.5-1.3,1.3-1.8c-0.5,1.2-0.9,2.1-1.4,3c-0.5,0.9-0.4,2.1-1.4,2.7c-0.6-0.8,0.5-1.2,0.2-1.8c-1,0.7-1.1,0.7-0.6,2.4
		c0.5,0.3,0.7-0.4,1.3-0.4c-0.5,0.8-1.1,1.4-1.4,2.1c0,0.3-0.2,0.7,0.1,0.7c0.9,0,0.6,0.7,0.6,1.2c0,0.5,0,1,0.3,1.5
		c0.4,1,0.8,2.2,1.4,3.1c0.4,0.6,0.9,1.3,1.2,2.1C6,70,6.7,70.7,8,71.1l0,0c0.5,0.8,1.5,1.2,2.4,1.6c0.4,0.2,0.7-0.1,0.9-0.3
		c0-0.3,0.4-0.5,0.2-0.8c-0.2-0.5-0.6-0.3-1-0.1c-0.3,0.1-0.5,0.3-0.7-0.1c-0.2-0.2-0.1-0.6,0-0.8c0.3-0.6,1.5-1.7,2.3-2.1
		c-0.4,0.7-1.1,1.3-1.5,2.2c0.8-0.1,0.8-0.1,2.1-1.4c0.5,0.8,0.3,1.4-0.2,2c-0.5,0.5-1,1-1.1,1.8c0.3,0.1,0.6,0.3,0.8,0.4
		c0.5,0.1,1,0.4,1.4,0.5c0.6,0.1,1.3,0.1,1.7-0.3c0.6-0.6,0.9-0.1,1.3,0.1c1.1,0.7,2.9,1,3.9,0.2c1.9-1.4,3.7-2.7,5.4-4.3
		c3.3-2.9,6.4-5.9,9.8-8.7c0.9-0.7,1.9-1.4,2.6-2.2c1.1-1.3,2.6-2.4,3.8-3.6c3.3-3.1,7.2-5.6,10.2-9.1c0.3-0.4,0.9-0.6,1.2-1.4
		c-0.5,0.2-0.8,0.4-1.1,0.6c-0.5,0.3-0.6,0.9-0.9,1.3c-0.3,0.6-1.3-0.1-1.6,0.6c-0.1,0.2-0.3,0.5-0.5,0.4c-1.3-0.1-1.5,0.9-2,1.6
		c-0.3,0.4-0.4,1.3-1.3,0.6c-0.2-0.1-0.4,0.2-0.5,0.3c-0.3,0.2-0.2,0.7-0.5,1c-0.4,0.6-0.6,1.7-1.7,1.2c-0.3-0.1-0.3,0.2-0.4,0.5
		c-0.4,0.7-0.6,1.3-1,1.9c-0.1,0.2-0.3,0.6-0.6,0.4c-0.3-0.2,0-0.4,0.1-0.6c0.1-0.3,0.5-0.7,0.4-1.2c-0.6,0.5-1.3,0.9-1.7,1.5
		c-0.5,0.7-0.5,1.5-1,2.1c-0.3-0.3,0.1-0.6-0.3-0.8c-0.9,0.6-1.7,1.2-2.1,2.4c-0.2,0.5-0.6,1.2-1.1,1.4c-1.3,0.4-1.9,1.1-2.6,2.1
		c-0.2,0.3-0.3,0.5-0.6,0.6c-0.2,0-0.4,0-0.5-0.1c-0.1-0.2,0-0.2,0-0.4c0.3-0.4,0.7-0.8,1-1.2c0.3-0.4,0.4-0.8,1.1-0.9
		c0.4,0,1.1-0.6,0.9-1.3c-0.1-0.6,0.3-1,0.4-1.5c0.1-0.5,0.5-0.8,0.9-0.5c0.6,0.4,0.8,0.1,1.2-0.3c1.1-1.2,2.6-2.1,3.2-3.7
		c0-0.1,0.3-0.4,0.3-0.2c0.4,1,0.6,0,0.9,0c0.3-0.2,0.8-0.5,0.9-0.7c0.6-0.9,1.4-1.3,2.3-1.9c1.5-0.9,2.9-2,3.6-3.6
		c0.1-0.1,0.2-0.1,0.2-0.2c0.3,0.4-0.3,0.6-0.1,1.2c0.4-1.1,1.4-1.5,1.7-2.4c0.1-0.2,0.3-0.6,0.5-0.4c0.6,0.3,0.7-0.3,0.9-0.6
		c0.2-0.3,0.2-0.7,0.7-0.8c0.1,0.6-0.6,1-0.3,1.6c1.1-0.7,2.4-1.1,3.3-2c2.1-1.8,4.2-3.9,6.2-5.8c2.2-2.2,4.5-4.2,6.8-6.2
		c0.9-0.7,1.5-1.5,2.1-2.4c0.6-1,1.2-1.9,1.9-2.7c0.7-0.8,1.3-1.4,1.7-2.4c0.8-1.8,1.4-3.7,1.9-5.6c0-0.3,0.2-0.8,0-0.8
		c-0.7-0.4-0.3-1.4-0.8-2c-0.1,3.3-1.1,6.3-2.7,8.9c-1.5,2.6-3.3,5.3-6.1,6.9c1.3-1.6,2.8-2.9,3.7-4.8c-0.3,0.6-1.1,0.1-1.2,0.7l0,0
		c-0.4-0.5,0.1-0.6,0.4-0.7c0.8-0.5,1.5-0.8,1.5-2c-0.5,0.7-1,1.3-1.5,2c-0.2-0.4,0.3-0.6,0.2-1c-1.8,1-2.7,2.9-4.4,3.8
		c0.3-0.4,0.6-0.7,0.9-1.1c1.4-1.5,1.4-1.5,0.8-3.5c-0.1-0.1-0.1-0.2-0.2-0.3c-1.2,1.1-2.6,1.8-3.6,3.1l0,0
		c-0.2-0.6,0.4-0.8,0.7-1.1c0.8-0.8,1.7-1.4,2.5-2.1c0.4-0.3,0.8-0.8,0.5-1.2c-0.7-0.7-0.5-1.5-0.8-2.3c-1,0.5-1.6,1.5-2.6,1.9
		c0.6-0.6,1.3-1.2,2.1-1.8c0.9-0.6,1-1.4,0.8-2.4c0-0.2-0.4-0.5-0.2-0.7c0.5-1-0.2-1.9-0.3-3c-1.5,0.8-2.3,2.3-3.6,3
		c0.2-0.3,0.3-0.5,0.5-0.7c0.9-1,1.8-1.8,2.7-2.8c0.4-0.3,0.3-0.6,0-0.9c-0.4-0.5-0.6-0.1-0.9,0.1c-0.7,0.7-1.5,1.5-2.2,2.2
		c-0.2-0.2,0-0.4,0.1-0.6c1.1-1.1,2.3-2.1,3.3-3.3c0.6-0.6,1-0.9,0.8-1.8c-0.2-0.5,0.2-1,0.7-1.2c0.8-0.1,1.1-0.6,1.5-1
		c0.2-0.1,0.3-0.4,0.6-0.2c0.2,0.5-0.7,0.6-0.3,1.2c0.5-0.4,1-0.8,1.2-1.5c1.3,1.6,2.3,3.4,3,5.3c0.4,1,0.8,1.9,0.3,3
		c-0.3-0.9-0.5-1.8-1.1-2.7c-0.8,1.1-1.6,2-2.2,3.4c0.8-0.3,1.1-0.9,1.7-1.1c0.3-0.1,0.5-0.2,0.7-0.1c0.3,0.3,0.2,0.5,0,0.8
		c-0.4,0.6-0.9,1.3-1.3,1.9c-0.7,0.8-1,1.7-0.2,2.8c0.8-1.2,1.7-2.1,2-3.5c0.1-0.5,0.3-1.1,0.4-1.6c0.2,1.5-0.2,3-0.4,4.4
		s-0.2,3-0.9,4.4c0.9-1.3,1.7-2.7,2.3-4.2c0.2-0.7,0.4-1.5,0.3-2.2C74.6,16.7,74.5,15.8,74.8,14.9z M32.4,22.2
		c-0.5,0.2-0.8,0.3-1,0.5c-1.2,1.1-2.6,2.1-3.7,3.3c-0.6,0.6-1,1.2-1.7,1.6c-1.2,0.9-2.3,1.8-3.4,2.7c-0.3,0.2-0.5,0.5-0.8,0.8
		c-0.3,0.4-0.3,0.3-0.1,0.6c0.2,0.4-0.3,0.3-0.4,0.5c-0.8,0.6-1.5,1.2-2.1,2c-0.2,0.3-0.4,0.5-0.1,0.8C23.4,30.6,28,26.6,32.4,22.2z
		 M69.2,24.7c2.9-2,3.4-2.8,3.1-5.5C71.3,21.3,69.5,22.6,69.2,24.7z M69.8,13.3c0.7-0.4,1.2-1.1,1.9-1.4c0.3-0.1,0.5-0.4,0.4-0.7
		c-0.3-0.8-0.4-1.7-1.1-2.3c-0.2-0.3-0.6,0-0.6,0.2c0.2,0.7-0.2,1.2-0.8,1.4c-0.1,0.1-0.2,0.2-0.3,0.3c-0.2,0.4-0.2,0.8,0.2,1
		c0.3,0.2,0.4-0.1,0.6-0.4c0.2-0.4,0.4-0.7,1.1-0.9C70.5,11.5,70,12.3,69.8,13.3z M70,8.3c-1.2,0.9-2.1,2-3.3,3
		c-0.3,0.2-0.6,0.7-0.8,1.1c-0.2,0.3-0.3,0.5-0.1,0.7c0.3,0.3,0.4-0.1,0.7-0.3c0.6-0.6,1.1-1.2,1.8-1.8C69,10.3,69.8,9.4,70,8.3z
		 M66.5,16.2c0.7-0.4,2.2-2.4,2.4-3.1c0-0.1,0-0.3,0-0.4c0-0.2-0.1-0.4-0.4-0.5c-0.2-0.1-0.3,0.1-0.5,0.2c-0.5,0.7-0.9,1.2-1.4,1.9
		C66.3,15,66.1,15.6,66.5,16.2z M64.3,7.7c-1-0.8-1.3-0.9-2,0.1c-0.2,0.3-0.3,0.5-0.5,0.8c-0.3,0.5,0,0.9,0.4,1.1
		c0.4,0.3,0.7,0.1,1-0.3C63.5,8.8,63.9,8.2,64.3,7.7z M67.3,22.2c1.6-1.8,1.6-1.8,1-3.7C66.5,20.4,66.9,20.6,67.3,22.2z M60.9,4.5
		c-0.1-0.1-0.1-0.2-0.3-0.2c-0.6,0.5-1.2,0.9-1.8,1.4c-0.3,0.2-0.6,0.5-0.2,0.9c0.5,0.4,0.9,0.5,1.2-0.1C60.4,5.9,60.7,5.3,60.9,4.5
		z M29.7,26.7c1.4-0.8,2.1-2.2,2.7-3.7C31.3,23.9,30.2,25.4,29.7,26.7z M29.3,25.6c-1.1,1.3-2.1,2.5-2.7,3.9
		C28.1,28.7,28.9,27.4,29.3,25.6z M48.2,9.7c-1,0.5-2.1,0.9-2.5,2.3C46.6,11.3,47.7,10.9,48.2,9.7z M63.1,10.7
		c1.1-0.5,1.6-1.3,2.3-2.1c0.1-0.1,0.2-0.3,0-0.4C65.4,8.1,65.2,8,65.1,8C64.3,8.8,63.4,9.3,63.1,10.7z M35.1,20.9
		c-1.2,0.7-1.6,1.8-2.1,2.8C34.1,22.9,34.5,22.5,35.1,20.9z M25.9,29.2c-0.9,0.7-1.3,1.9-1.8,3C25.1,31.4,25.5,30.3,25.9,29.2z
		 M72.4,5.8c-0.7-0.9-1.2-1.6-2-2.1c-0.1-0.1-0.2-0.1-0.4,0C69.9,3.8,70,4,70,4.1c0.2,0.2,0.6,0.7,0.6,0.6c0.6-0.6,0.6,0.1,0.9,0.3
		C71.8,5.2,71.8,5.6,72.4,5.8z M70.1,19.5c-0.8,0.3-1,0.9-0.6,1.6C70.3,20.9,70.5,20.3,70.1,19.5z M53.1,7.2
		c-1.3,0.1-1.5,0.8-1.9,1.8C51.9,8.5,52.5,8.1,53.1,7.2z M71.1,13.1c-1.4,0.6-1.4,0.8-1,1.7C70.5,14.2,71,13.7,71.1,13.1z
		 M70.5,17.7c0.5-0.8,1-1.2,1.1-2C70.8,16.2,70.2,16.5,70.5,17.7z M66.2,14.2c0.5-0.4,1.1-0.9,1.2-1.7
		C66.9,13.1,66.3,13.4,66.2,14.2z M66.8,6.5c-0.4,0.3-0.7,0.6-0.9,0.7c-0.2,0.2-0.4,0.5-0.1,0.7c0.3,0.2,0.4-0.1,0.5-0.3
		C66.5,7.4,66.8,7.1,66.8,6.5z M57.9,8.1c0.4-0.3,1-0.4,0.8-0.9C58.6,7.2,58.5,7,58.4,7C57.9,7.1,58,7.6,57.9,8.1z M54.9,8.1
		c-0.4-0.3-0.7-0.6-1.2-0.3c-0.1,0.1-0.1,0.2,0,0.3c0.2,0.3,0.6,0.3,1,0.3C54.7,8.3,54.7,8.3,54.9,8.1z M16.6,75.2
		c-0.5-0.3-1-0.4-1.4,0.1C15.8,75.4,16.1,75.8,16.6,75.2z M67.9,22.3c0.1,0.1,0.1,0.2,0.1,0.2c0.2-0.1,0.3-0.2,0.5-0.4
		c0.2-0.2,0.5-0.4,0.3-0.6c-0.2-0.3-0.4,0.1-0.5,0.3C68.1,21.8,68,22,67.9,22.3z M17.6,75.8c0.5,0.1,1,0.2,1.6-0.2
		C18.5,75.3,18,75.5,17.6,75.8z M70.3,21.3c-0.7,0.4-1,0.7-0.9,1.3C69.9,22.5,70,22,70.3,21.3z M77.2,19.5c-0.6,0.2-0.5,0.7-0.6,1.2
		C77.1,20.2,77.2,20,77.2,19.5z M57.4,7c-0.2,0.1-0.3,0.2-0.4,0.3c-0.2,0.1-0.4,0.3-0.1,0.5c0.2,0.1,0.3,0.1,0.4-0.1
		C57.4,7.5,57.5,7.3,57.4,7z M52.6,47.2c0.3,0,0.4-0.2,0.5-0.4c0.1-0.1,0-0.1-0.1,0C52.8,46.9,52.5,47,52.6,47.2z M76.7,14.4
		c-0.1,0.2-0.3,0.3-0.2,0.4c0,0.2-0.2,0.5,0.2,0.5C76.9,15.2,76.8,14.9,76.7,14.4z M62.5,11.7c0.2-0.1,0.3-0.1,0.4-0.2
		c0.1-0.2,0.4-0.5,0-0.5C62.6,10.9,62.4,11.3,62.5,11.7z M75.7,11.4c0.2-0.1,0.1-0.3,0-0.5c-0.1-0.1-0.2-0.1-0.2-0.1
		c0,0.1,0,0.4,0,0.5C75.5,11.4,75.6,11.5,75.7,11.4z"/>
	<path d="M30,54.6c0-0.3-0.1-0.6-0.3-0.8c-1.7-1.6-2.9-3.6-4.6-5.2c-0.4-0.3-0.6-0.6-1.1-0.4c-0.7,0.2-1.2-0.4-0.9-1.1
		c0.6-1.1-0.1-1.7-0.6-2.4c-0.5-0.6-1.1-1.2-1.6-1.9c-0.8-1-0.7-1.6,0.1-2.6c1-1.2,1.8-2.6,2.7-3.8c0.6-0.9,1.4-1.1,2.2-1.6
		c0.1,0.4-0.1,0.6-0.3,0.9c0.1,0.2,0.2,0.1,0.3,0c0.5-0.4,1-0.9,1.4-1.3c0.2-0.1,0.3-0.4,0.3-0.5c0.4-1.4,1.1-2.2,2.5-2.8
		c0.3-0.1,0.5-0.4,0.8-0.8c1-0.9,1.8-1.9,2.9-2.6c0.8-0.5,1.5-1.5,2.4-2c0.1-0.1,0.2-0.1,0.2-0.2c0.5-1.9,2.4-2.6,3.4-4
		c0.1-0.2,0.3-0.4,0.7-0.2c-0.1,0.3-0.2,0.7-0.4,1c0.2,0.2,0.3,0,0.4,0c0.8-0.9,1.5-2,2.4-2.7c0.7-0.6,1.3-1.2,2-1.8
		c0.2-0.1,0.5-0.4,0.6-0.4c1.1,0.7,1.3-0.6,2.1-0.8c0.2,0.5-0.6,0.6-0.2,1c0.5,0,0.6-0.9,1.3-0.6c0.1,0.6-0.6,0.6-0.7,1.2
		c0.3,0.3,0.5-0.3,0.8-0.3c0.5,0.4-0.5,0.7-0.2,1c0.4,0.2,0.6-0.4,1.1-0.2c0.1,0.3-0.7,1.1,0.4,1.1c0.2,0,0.2,0.2,0.2,0.4
		c-0.2,0.9,0.9,0.5,1,0.8c0.1,0.4-0.2,1.2,0.4,1.2c0.7,0.1,0.5,0.5,0.8,0.9c0.4,0.7,0.8,1.4,1.6,1.8c0.3,0,0.4,0.2,0.4,0.5
		c-0.1,0.3-0.1,0.6,0.4,0.6c0.3,0,0.5,0.1,0.4,0.5c0,1,0.5,1.5,1.4,1.7c0.1,0,0.1,0,0,0.4c0,0.1-0.1,0.2,0,0.4
		c0.1,0.2,0.2,0.1,0.4,0c0.5-0.2,0.7-0.7,1.2-0.9c0.2,0.3,0,0.5-0.2,0.7c-0.3,0.3-0.6,0.6-0.8,0.9c-0.2,0.3,0.1,0.4,0.1,0.6
		c-0.1,0.6,1.7-0.9,0.7,0.7c-0.3,0.3,0.5,1,0.6,1.6c0.1,0.6-0.3,1.1-0.7,1.6c-2.4,2.3-4.9,4.6-7.3,6.9c-1.8,1.6-3.6,3.1-5.5,4.8
		c-1.9,1.6-3.9,3.2-5.4,5.2c-0.4,0.6-1.2,0.4-1.6,1c-0.7,0.9-1.7,1.7-2.4,2.6c-0.6,0.6-1.2,1.1-1.9,1.3c-0.4,0.2-0.7,0.2-0.7,0.8
		c0,0.4-0.4,0.3-0.6,0.2c-0.3-0.2-0.4-0.5-0.7-0.9C31.2,55.6,30.8,54.9,30,54.6L30,54.6z M51.4,24.2c-1.5-1.6-2.9-3-4.4-4.6
		c-0.4-0.5-0.9-0.3-1.2-0.1c-0.5,0.4-1,0.8-1.4,1.3c-0.2,0.2-0.3,0.5-0.6,0.5c-0.9,0-1.4,0.7-2,1.2c-1.5,1.5-3.1,2.6-4.7,4
		c-2.3,2.1-4.5,4.1-6.4,6.5c-0.2,0.3-0.4,0.6-0.6,0.6c-1.2,0.6-2,1.6-3.1,2.6c-1.5,1.5-3.2,2.8-4.6,4.4c-0.7,0.8-0.8,0.9-0.1,1.8
		c0.5,0.6,1,1.3,1.4,1.9c0.7,1.4,1.6,2.6,2.7,3.7c1.1,1.1,1.9,2.4,3.1,3.4c1.1,0.9,1.5,2.7,3,3.2c0.5,0.2,0.9,0.5,1.2-0.1
		c0.6-1.2,1.6-2,2.5-2.8c0.2-0.2,0.4-0.3,0.6-0.6c1.8-1.8,3.6-3.4,5.5-5c1.3-1,2.6-1.9,3.8-2.9c2.3-1.7,4.1-3.8,6.2-5.7
		c1.2-1.1,2.6-2,3.5-3.4c0.1-0.2,0.3-0.2,0.5-0.3c1-0.2,1.4-1.1,0.8-1.9c-0.8-1.2-1.6-2.3-2.6-3.2c-1.1-1.1-1.9-2.2-2.7-3.5
		C51.8,25,51.6,24.5,51.4,24.2z M38.3,50.9c0.9-0.3,1.4-1,1.9-1.8C39.5,49.7,38.8,50.2,38.3,50.9z M45.3,18.4
		c-0.4,0.1-0.7,0.4-0.8,0.8c0,0.1,0,0.1,0.1,0.2C44.9,19.2,45.2,19,45.3,18.4z"/>
	<path d="M14.2,72c-0.3,0.1-0.5,0.2-0.3,0.5c0.1,0.4-0.2,0.5-0.5,0.7c-0.2,0.1-0.4,0.2-0.5,0s-0.2-0.4,0-0.5
		c0.3-0.3,0.5-0.4,0.8-0.8c0.5-0.5,1-0.9,1.1-1.9c0-0.8,0.6-1.1,1.2-0.9c0.7,0.2,0.9,0.7,0.5,1.4c-0.4,0.7-0.4,1.6-1,2.2
		c-0.2,0.1-0.3,0.4-0.5,0.2c-0.1-0.2,0-0.4,0.1-0.5c0.2-0.3,0.6-0.4,0.2-0.8C14.8,71.4,14.5,71.7,14.2,72z"/>
	<path d="M58.4,37.7c-0.3,1.2-0.9,2.2-1.7,3.2c-0.4,0.6-0.9,0.3-1.4,0c-0.4,0.7-0.5,1.4-1,2.1c-0.1,0.2-0.3,0.3-0.5,0.2
		c-0.2-0.1-0.3-0.4-0.1-0.6c0.5-0.9,1.1-1.9,1.7-2.8c0.1-0.2,0.5-0.5,0.6-0.5c1.3,0.2,1.5-0.9,2-1.6C58.3,37.7,58.3,37.7,58.4,37.7z
		"/>
	<path d="M8,71.1c-0.7-0.9-0.7-1.9,0-2.2s1.2-0.9,1.7-1.6c0.1-0.1,0.2-0.2,0.4-0.2c0.4,0.2,0.2,0.5,0.1,0.7
		c-0.4,0.7-0.8,1.5-0.9,2.4C9.1,70.9,8.6,71.2,8,71.1C8,71.2,8,71.1,8,71.1z"/>
	<path d="M29.9,54.5c-0.2,0.9-0.2,1.8-0.9,2.5c-0.2,0.1-0.3,0.4-0.5,0.3c-0.2-0.1-0.3-0.2-0.3-0.4c-0.1-0.8-0.5-1.6,0.3-2.4
		C29.2,53.8,29.2,53.8,29.9,54.5C30,54.6,29.9,54.5,29.9,54.5z"/>
	<path d="M61.4,24.1c0.6-0.5,1.1-0.4,1.4,0.3c0.1,0.7,0.3,1.4-0.2,2c-0.4,0.3-0.7,0.4-1.1,0.2c-0.4-0.2-0.7-0.5-0.5-1
		C60.9,25,61.1,24.4,61.4,24.1z"/>
	<path d="M62.1,34.7c0-0.3,0.1-0.6,0.1-1c0.1-0.7,0.5-0.9,1.1-1.1c0.3-0.1,0.6,0.1,0.7,0.4c0.2,0.6,0.2,1.2-0.3,1.6
		c-0.5,0.4-0.9,0.7-1.4,1.3C61.8,35.4,62.3,35.1,62.1,34.7L62.1,34.7z"/>
	<path d="M10.7,65.3c-0.5,0.4-1.2,0.2-1.2-0.4c-0.1-0.6,0.1-1.2,0.4-1.7c0.3-0.5,1-0.5,1.3,0.1C11.5,63.8,11.3,64.8,10.7,65.3z"/>
	<path d="M13.7,55.7c0.6,0.7,0.7,2,0.2,2.4c-0.4,0.3-0.7,0.2-1.1-0.1c-0.6-0.8-0.7-1.9-0.2-2.3C13.1,55.5,13.5,55.6,13.7,55.7z"/>
	<path d="M5,64.2c-0.5,0-0.3,1.1-0.9,0.7c-0.5-0.3,0.2-0.8,0.1-1.1c0-0.5,0-0.9,0.1-1.3c0.1-0.5,0.4-0.7,0.9-0.7
		c0.5,0,0.5,0.4,0.6,0.7C6,63.2,5.8,63.6,5,64.2z"/>
	<path d="M45.6,13.8c0.4-0.3,0.7-0.4,1.2-0.2c0.5,0.3,0.3,0.7,0.1,1.1c0,0.1-0.1,0.2-0.2,0.4c-0.2,0.4-0.4,0.8-0.9,0.8
		c-0.4,0-0.6-0.1-0.7-0.4c-0.2-0.5,0-1,0.4-1.3C45.3,14,45.5,13.9,45.6,13.8z"/>
	<path d="M52.6,19.3c0.4-0.3,1.1-0.2,1.3,0.1c0.3,0.4,0.1,1.2-0.4,1.6c-0.4,0.3-1,0.2-1.2-0.3C51.9,20.3,52,19.6,52.6,19.3z"/>
	<path d="M24,67.6c-0.4-0.8-0.5-1.5-0.2-2.2c0.1-0.3,0.3-0.5,0.7-0.6c0.4,0,0.6,0.3,0.7,0.6c0.2,0.5,0.2,1-0.2,1.3
		C24.7,67,24.4,67.3,24,67.6z"/>
	<path d="M21.9,54.6c0.4,0.6,0.2,1.7-0.3,2c-0.4,0.2-0.7,0.1-1-0.3c-0.4-0.6-0.2-1.6,0.1-1.9C21.2,54.3,21.6,54.2,21.9,54.6z"/>
	<path d="M17.8,62.6c0.4-0.3,0.8-0.4,1.2,0.1c0.4,0.5,0.3,1.3-0.2,1.7c-0.5,0.4-0.8,0.3-1.2-0.2C17.3,63.8,17.4,62.9,17.8,62.6z"/>
	<path d="M6.8,55.9c0.5-0.2,0.7-0.2,1,0.2c0.4,0.5,0.3,1.4-0.1,1.7c-0.4,0.3-0.7,0.2-1.1-0.1C6.3,57.5,6.3,56.3,6.8,55.9z"/>
	<path d="M16.6,47.3c0.4,0.5,0.2,1.6-0.3,2c-0.4,0.3-0.7,0.2-1-0.1c-0.4-0.5-0.1-1.9,0.5-2.1C16.1,47.1,16.4,47.1,16.6,47.3z"/>
	<path d="M5.2,57.8C5.3,58.5,5.2,59,5,59.4c-0.1,0.2-0.1,0.3-0.2,0.5c-0.1,0.3,0.8,0.5,0.1,0.9c-0.3,0.2-0.5,0.4-0.9,0.7
		c-0.2,0.3-0.7,0.4-0.9,0.2c-0.2-0.3,0.2-0.5,0.3-0.7C4.1,60.1,4.6,59,5.2,57.8z"/>
	<path d="M6.6,69c-0.4-0.5-0.5-0.9,0-1.3c0.6-0.6,1-1.2,1.3-1.8c0.1-0.2,0.1-0.5,0.5-0.2c0.3,0.2,0.4,0.5,0.2,0.7
		c-0.3,0.5-0.6,1.2-1.1,1.5C7.2,68.1,7.1,68.7,6.6,69z"/>
	<path d="M26.8,31.4c0.6,0.6,0.3,1.8-0.2,2c-0.4,0.2-0.6,0-0.8-0.2c-0.3-0.4-0.1-1.4,0.3-1.7C26.4,31.2,26.7,31.3,26.8,31.4z"/>
	<path d="M40.5,19.2c0.4,0.5,0.3,1.3-0.2,1.7c-0.4,0.3-1,0.2-1.3-0.1c-0.4-0.7,0.2-1,0.5-1.4C39.8,19,40.1,18.9,40.5,19.2z"/>
	<path d="M10.1,49.4c0.4,0.5,0.3,1.2-0.2,1.5c-0.4,0.3-0.7,0.3-0.9,0c-0.3-0.4-0.3-1.3,0.2-1.5C9.4,49.2,9.8,49,10.1,49.4z"/>
	<path d="M19.1,39.1c-0.2,0.2-0.5,0.5-0.8,0.1c-0.4-0.5-0.3-1.5,0.3-1.9c0.3-0.2,0.6-0.1,0.8,0.1C19.8,38,19.7,38.6,19.1,39.1z"/>
	<path d="M62.1,34.7c-0.5,0.5-0.6,1.1-0.8,1.7c-0.2,0.5-0.5,1-0.8,1.4c-0.2,0.3-0.4,0.7-0.8,0.3c-0.3-0.3-0.1-0.6,0.2-0.8
		c0.5-0.4,0.8-1,1.1-1.7C61.4,35.2,61.7,35,62.1,34.7L62.1,34.7z"/>
	<path d="M28.3,64.2c-1.1,1.2-1.9,2.6-2.8,3.9C25.4,68,25.3,68,25.2,68c0.9-1.3,1.7-2.7,2.7-4C28.2,63.5,28.1,64.1,28.3,64.2
		L28.3,64.2z"/>
	<path d="M29.3,64.8c0.6-1.6,1.5-2.7,2.4-4.1C31.5,61.9,30.3,64.2,29.3,64.8z"/>
	<path d="M19,73.9c1-1.4,2.4-2.4,3.7-3.6C21.6,71.6,20.4,72.9,19,73.9z"/>
	<path d="M28.3,64.2c0.5-0.2,0.5-0.9,1.3-1.3c-0.5,0.9-0.8,1.5-1.3,2.3c-0.4,0.7-0.3,1.5-1,2.1c-0.3-0.7,0.2-1.2,0.3-1.7
		C27.9,65.2,28.1,64.8,28.3,64.2L28.3,64.2z"/>
	<path d="M6.6,64.2c0.4,1.2,0.2,2-0.8,2.7C5.7,65.9,5.7,65.7,6.6,64.2z"/>
	<path d="M45.2,46.7c-0.7,0.9-1.3,1.7-2,2.6c-0.2,0.1-0.1,0.3-0.3,0.2c-0.3-0.2-0.2-0.5-0.1-0.6c0.7-0.8,1.5-1.6,2.3-2.4
		C45.2,46.6,45.2,46.6,45.2,46.7z"/>
	<path d="M52.1,41.4c0.6-1.1,1.3-1.8,2.5-2.3c-0.7,0.8-1.5,1.7-2.3,2.4C52.3,41.5,52.2,41.4,52.1,41.4z"/>
	<path d="M25,68.9c0,0.8-0.4,1.3-1.2,1.9C24.1,69.7,24.4,69.2,25,68.9z"/>
	<path d="M69.3,26.9c-0.8,1-1.8,1.9-2.6,3.1l0,0c0-0.1-0.1-0.3-0.1-0.4C67.5,28.6,68.1,27.5,69.3,26.9L69.3,26.9z"/>
	<path d="M48.3,44.8c-0.6,0.7-1.1,1.3-1.7,2c0-1.1,1.1-1.3,1.5-2.2C48.2,44.6,48.2,44.7,48.3,44.8z"/>
	<path d="M39.2,17.4c-0.3-0.7,0.3-1.2,0.3-1.7l0.3-0.1c0.1,0,0.2,0.1,0.2,0.3C40,16.5,39.5,16.9,39.2,17.4L39.2,17.4z"/>
	<path d="M39.2,17.4c-0.4,0.6-0.7,1.3-1.3,1.8C38.2,17.8,38.2,17.8,39.2,17.4L39.2,17.4z"/>
	<path d="M17.8,70.9c0.3-0.4,0.7-0.8,1-1.3C18.8,70.4,18.5,70.7,17.8,70.9z"/>
	<path d="M66.8,29.9c-0.4,0.5-0.4,1.2-1.1,1.7C66,30.4,66,30.4,66.8,29.9L66.8,29.9z"/>
	<path d="M63.3,27.1c-0.3,0.4-1.1,0.5-0.9,1.3c0.1,0.1-0.2,0.2-0.3,0.1c-0.1-0.1-0.2-0.2-0.2-0.3c0-0.2,0.1-0.3,0.3-0.5
		C62.4,27.5,62.8,27.4,63.3,27.1L63.3,27.1z"/>
	<path d="M75.7,18.2c0-0.4,0-0.6,0.2-0.8c0.3,0.2,0.2,0.4,0.1,0.6C76,18,76,18.3,75.7,18.2z"/>
	<path d="M30.3,28.5c-0.1,0.3-0.4,0.7-0.6,0.6c-0.2-0.1,0.1-0.3,0.3-0.5C30.1,28.6,30.1,28.6,30.3,28.5z"/>
	<path d="M74.9,12.8c-0.2,0.2-0.1,0.5-0.2,0.7c-0.1-0.2-0.2-0.3-0.2-0.5c0-0.2-0.1-0.4,0-0.5C74.6,12.4,74.6,12.8,74.9,12.8z"/>
	<path d="M54.3,5.4C54,5.7,53.9,6,53.4,6.1C53.6,5.7,53.9,5.5,54.3,5.4z"/>
	<path d="M51.8,32.1c0.2-0.9,0.4-1.3,1.1-1.5C52.9,31.4,52.4,31.6,51.8,32.1z"/>
	<path d="M38.6,28.6c0.2-0.1,0.3-0.2,0.5,0c0.1,0.3,0,0.5-0.2,0.7c-0.2,0.1-0.4,0-0.5-0.1C38.2,28.8,38.5,28.7,38.6,28.6z"/>
	<path d="M36.8,49c0.2-0.1,0.4,0,0.5,0.1c0.2,0.2,0.1,0.4-0.2,0.5c-0.2,0-0.3,0-0.4-0.2S36.7,49.1,36.8,49z"/>
	<path d="M38.1,33.9c0.2,0.2,0.1,0.4-0.1,0.6c-0.2,0.1-0.3,0.2-0.4,0.1c-0.2-0.1-0.1-0.3,0-0.5C37.7,34,37.8,33.8,38.1,33.9z"/>
	<path d="M36.2,30.8c0.1,0.3,0.2,0.5-0.1,0.6c-0.2,0.1-0.4,0.1-0.6-0.1c-0.1-0.2,0-0.4,0.1-0.5C35.8,30.8,36,30.8,36.2,30.8z"/>
	<path d="M33.1,32.9c0.2-0.2,0.4-0.2,0.6,0.1c0.1,0.2,0.2,0.3,0,0.5c-0.2,0.2-0.4,0.1-0.6,0C33,33.3,33,33,33.1,32.9z"/>
	<path d="M27.2,39.7c-0.2,0-0.4,0.1-0.6-0.1c-0.1-0.2,0-0.4,0.1-0.5c0.2-0.1,0.4-0.1,0.6,0.1C27.4,39.4,27.3,39.6,27.2,39.7z"/>
	<path d="M40.4,31.3c0.2,0,0.4-0.1,0.6,0.1c0.1,0.2,0,0.4-0.1,0.5s-0.4,0-0.5-0.1C40.2,31.7,40.3,31.5,40.4,31.3z"/>
	<path d="M34.5,52c-0.2,0.2-0.4,0.2-0.6-0.1c-0.1-0.2,0-0.4,0-0.4c0.2-0.1,0.4-0.1,0.6,0.1C34.7,51.7,34.6,51.9,34.5,52z"/>
	<path d="M44.2,38c0.2-0.1,0.4-0.2,0.5,0c0.2,0.3,0,0.5-0.1,0.6c-0.2,0.1-0.3,0.1-0.4,0C44,38.4,44,38.2,44.2,38z"/>
	<path d="M29.4,37.3c0.1,0.2,0.2,0.4-0.1,0.6c-0.2,0.1-0.3,0-0.4-0.2c-0.1-0.2-0.1-0.3,0-0.5C29.1,37.2,29.3,37.1,29.4,37.3z"/>
	<path d="M28.7,42.1c0.2-0.1,0.4-0.2,0.6,0.1c0.1,0.2,0,0.4-0.1,0.5c-0.2,0.1-0.3,0.1-0.5,0C28.6,42.4,28.4,42.3,28.7,42.1z"/>
	<path d="M31.6,35.9c-0.1,0.1-0.2,0.2-0.5,0c-0.1-0.2-0.2-0.4,0-0.5c0.2-0.3,0.4-0.3,0.6-0.1C31.8,35.5,31.7,35.7,31.6,35.9z"/>
	<path d="M34.3,37.6c0.2,0.2,0.2,0.4,0,0.6c-0.2,0.1-0.4,0-0.4,0c-0.1-0.2-0.1-0.3,0-0.5C34,37.5,34.1,37.5,34.3,37.6z"/>
	<path d="M34.5,42.3c0.1,0.2,0.2,0.4,0,0.5s-0.4,0.2-0.6,0.1c-0.1-0.1-0.1-0.3,0-0.4C34.1,42.3,34.3,42.2,34.5,42.3z"/>
	<path d="M31.5,45.3c0.2,0,0.4,0,0.5,0.1c0.2,0.2,0,0.4-0.1,0.5c-0.2,0.1-0.3,0.1-0.5-0.1C31.3,45.6,31.3,45.5,31.5,45.3z"/>
	<path d="M28.8,48.1c0.1-0.3,0.1-0.5,0.2-0.5c0.2-0.1,0.3-0.5,0.7-0.1c0.2,0.2-0.1,0.3-0.3,0.5C29.2,47.9,29,48,28.8,48.1z"/>
	<path d="M38.7,38.6c0,0.1,0,0.3-0.3,0.2c-0.1,0-0.3,0-0.3-0.2c0-0.2,0.1-0.3,0.3-0.4C38.5,38.4,38.6,38.4,38.7,38.6z"/>
	<path d="M44.2,42.7c0.1,0.2,0,0.4-0.1,0.5c-0.2,0.1-0.2,0-0.4,0c-0.1-0.2,0-0.2,0-0.4C43.9,42.6,44,42.6,44.2,42.7z"/>
	<path d="M43.7,34.6c-0.2,0.1-0.2,0.2-0.4,0c-0.2-0.1-0.2-0.3-0.1-0.4c0.1-0.1,0.3-0.1,0.4,0C43.8,34.3,43.8,34.4,43.7,34.6z"/>
	<path d="M26.7,44.8c-0.2,0.1-0.4,0.2-0.5,0c-0.1-0.2-0.2-0.3,0-0.5c0.2-0.1,0.4-0.2,0.5,0C26.9,44.5,26.9,44.7,26.7,44.8z"/>
	<path d="M48.8,38.6c0.1,0.3,0.1,0.4-0.1,0.5c-0.1,0.1-0.3,0-0.3-0.1c-0.1-0.2,0-0.4,0.1-0.5C48.6,38.5,48.7,38.6,48.8,38.6z"/>
	<path d="M32.6,39.2c0,0.2-0.1,0.3-0.3,0.4c-0.2,0-0.4,0-0.4-0.2s0.1-0.3,0.3-0.4C32.4,39,32.6,39,32.6,39.2z"/>
	<path d="M30.5,40.5c0.2,0.2,0.2,0.4,0,0.5c-0.2,0.1-0.2,0-0.4,0c-0.2-0.1-0.2-0.3-0.1-0.4C30.2,40.5,30.4,40.4,30.5,40.5z"/>
	<path d="M47.5,35.4c0.1,0.2,0,0.4-0.1,0.5c-0.2,0.1-0.2,0-0.3-0.1c-0.1-0.2-0.1-0.3,0-0.4C47.2,35.4,47.3,35.3,47.5,35.4z"/>
	<path d="M46.4,22.1c-0.2,0.1-0.3,0.1-0.4,0c-0.1-0.2-0.1-0.3,0-0.4c0.2-0.1,0.4,0,0.5,0.1C46.6,21.9,46.6,22,46.4,22.1z"/>
	<path d="M43.2,24.7c-0.2,0.1-0.3,0.1-0.5-0.1c-0.1-0.2-0.1-0.3,0-0.3c0.2-0.1,0.3-0.1,0.5,0C43.4,24.4,43.3,24.6,43.2,24.7z"/>
	<path d="M42.1,45.1c-0.2,0.1-0.4,0-0.5-0.1c-0.1-0.1,0-0.3,0.1-0.3c0.2-0.1,0.4,0,0.5,0.1C42.4,44.9,42.3,44.9,42.1,45.1z"/>
	<path d="M49.2,33.7c0.2-0.1,0.3-0.1,0.4,0c0.1,0.1,0.1,0.3,0,0.4c-0.1,0.1-0.3,0.1-0.4,0C49,34,49.2,33.8,49.2,33.7z"/>
	<path d="M41.7,40.7c0.2-0.1,0.4-0.2,0.5,0c0.1,0.2,0,0.4-0.1,0.5c-0.1,0.1-0.3,0.1-0.4,0C41.5,40.9,41.6,40.8,41.7,40.7z"/>
	<path d="M47.8,25.1c0.1-0.1,0.2,0,0.3,0c0.1,0.2,0.1,0.3,0,0.4c-0.2,0.1-0.2,0-0.3-0.1C47.6,25.4,47.6,25.3,47.8,25.1z"/>
	<path d="M39,43.3c0.1,0,0.2,0,0.4,0c0.2,0.1,0.1,0.3,0,0.5c-0.1,0.1-0.3,0.1-0.3,0.1C38.9,43.8,38.9,43.5,39,43.3z"/>
	<path d="M52,26.9c0.2,0.1,0.2,0.2,0,0.4c-0.1,0.1-0.2,0.2-0.3,0.1c-0.2-0.1-0.2-0.3-0.1-0.4C51.8,26.9,51.9,27,52,26.9z"/>
	<path d="M36.4,35.7c0.1,0.2,0.1,0.3,0,0.5c-0.2,0.1-0.3,0.1-0.5,0c-0.1-0.1,0-0.2,0-0.4C36.2,35.6,36.2,35.6,36.4,35.7z"/>
	<path d="M36.9,46c-0.1,0.1-0.3,0.1-0.4,0c-0.1-0.2,0-0.2,0-0.3s0.2,0,0.4,0C37.1,45.9,37,46,36.9,46z"/>
	<path d="M46.5,40.7c0.1,0.2,0,0.2-0.1,0.3c-0.2,0.1-0.4,0.2-0.5,0c-0.1-0.2-0.1-0.3,0-0.4C46.2,40.5,46.4,40.6,46.5,40.7z"/>
	<path d="M56.4,32.8c0.1,0.1,0,0.2-0.2,0.3c-0.2,0-0.4,0-0.4-0.2c-0.1-0.1-0.2-0.2,0-0.3C56.1,32.6,56.3,32.7,56.4,32.8z"/>
</g>
</svg>
