<?xml version="1.0" encoding="utf-8"?>
<!-- Generator: Adobe Illustrator 23.1.1, SVG Export Plug-In . SVG Version: 6.00 Build 0)  -->
<svg version="1.1" id="Layer_1" xmlns="http://www.w3.org/2000/svg" xmlns:xlink="http://www.w3.org/1999/xlink" x="0px" y="0px"
	 viewBox="0 0 46.9 88.9" style="enable-background:new 0 0 46.9 88.9;" xml:space="preserve">
<title>Безымянный-49</title>
<g>
	<path d="M39.9,2.4c-1,0-2,0.3-2.9,0.8c-2.1,1-3.8,2.6-5.1,4.5c-1.4,2-2.8,4.1-4.2,6.2c-0.4,0.6-0.7,1.2-1,1.8
		c-0.1,0.3-0.2,0.6-0.1,1c0.1,0.8,0.3,1.6,0.4,2.4c0.1,1.2-0.8,2.3-2,2.4c0,0-0.1,0-0.1,0c-0.7-0.2-1.2-0.8-1.2-1.5
		c0-0.6,0.1-1.1,0.3-1.7c0.6-1.6,1.3-3.2,2-4.7c0.6-1.2,1.4-2.4,2-3.5c0.9-1.6,2-3,3.3-4.4c1.6-1.9,3.7-3.4,6-4.4
		c1.1-0.5,2.4-0.8,3.6-0.7c0.1,0,1.9-0.3,2-0.3c0.9-0.3,1.9-0.1,2.5,0.5c1.4,1.1,1.5,2.6,1.4,4.2c-0.1,0.6-0.3,1.2-0.4,1.8
		c-0.1,0.2-0.1,0.5,0,0.7C46.8,8,46.6,8.7,46,9.1c-0.2,0.2-0.4,0.4-0.4,0.7c-0.3,1.2-0.6,2.4-0.9,3.6c-0.8,2.8-1.6,5.5-2.5,8.3
		c-0.8,2.3-1.6,4.6-2.5,6.9c-0.5,1.3-1.1,2.5-1.6,3.7c-0.1,0.1-0.1,0.2-0.1,0.4c0.1,0.6,0,1.3-0.3,1.9c-0.3,0.7-0.6,1.4-0.9,2.1
		c-0.9,1.7-1.8,3.5-2.7,5.2c-1,1.9-2,3.7-3,5.6c-0.5,1-1.1,2.1-1.6,3.1c-0.8,1.5-1.7,3-2.6,4.4c-1.5,2.3-3,4.6-4.5,6.8
		c-1,1.5-2,3-3.1,4.5c-0.7,1.1-1.5,2.2-2.4,3.2c-0.6,0.7-0.8,1.6-1.4,2.2c-0.8,0.8-1.5,1.5-2.3,2.2c-0.3,0.2-0.6,0.3-1,0.5
		c-0.3,0.1-0.5,0.3-0.7,0.5c-0.4,0.5-0.7,1-1.1,1.4c-0.1,0.2-0.2,0.3-0.4,0.4c-0.3,0.1-0.6,0.1-0.9,0.1c-0.3-0.1-0.3-0.5-0.2-0.8
		c0.1-0.6,0.3-1.1,0.5-1.7c0.1-0.3,0.1-0.7-0.1-1c-0.5-0.7-0.7-1.6-0.5-2.4c0.2-1.1,0.4-2.2,0.6-3.3c0-0.1,0-0.3,0-0.5
		c-0.2-0.5-0.1-1.1,0.2-1.6c0.5-0.9,0.8-1.8,0.9-2.8c0.3-1.8,0.7-3.6,1.1-5.4c0.9-4,2.1-7.9,3.6-11.6c0.7-1.7,1.3-3.4,2.1-5.1
		c0.9-2.2,2-4.3,3.2-6.4c0.5-0.9,0.9-1.9,1.4-2.8c0.1-0.1,0.1-0.3,0.2-0.4c0.5-0.4,0.4-0.9,0.3-1.4c-0.1-1,0.2-2.1,0.9-2.8
		c0.1-0.1,0.3-0.2,0.5-0.2c0.5,0.1,0.6-0.3,0.8-0.6c0.7-1.4,1.4-2.8,2.1-4.2c1.3-2.6,2.7-5.1,4.3-7.5c1.3-2,2.7-3.9,4.2-5.7
		c0.8-1,1.7-2,2.5-3c0.3-0.3,0.5-0.7,0.5-1.1c0.1-0.5,0.2-1.2,1-1.2C39.6,3.2,39.6,2.8,39.9,2.4z M12.1,67c-0.2-0.3-0.4-0.3-0.6,0
		c-0.2,0.4-0.4,0.8-0.6,1.2l0.1,0.1c0.1-0.3,0.3-0.5,0.4-0.8C11.7,67.3,11.8,67,12.1,67l0,0.6C12.4,67.3,12.5,67.1,12.1,67z
		 M44.7,6.1l-1-0.9l-0.8,1.3l1.5,1c0.3-0.1,0.3-0.6,0.7-0.4l-0.4,0.7l1.1,0.8c0.4-0.6,0.4-0.7,0.1-1.1C45.7,6.9,45.2,6.4,44.7,6.1
		L44.7,6.1z M15.4,69.7L15.4,69.7c0.7,0,1.4-0.6,1.4-1.3c0-0.1,0-0.2,0-0.3L15.5,68c-0.2,0.5-0.6,0.8-1.1,1l0.6-1.1l-1.6-0.4
		c0.3,0.8-0.6,1.2-0.4,1.9C13.8,69.8,14.6,69.8,15.4,69.7z M32.5,16.9c-0.3,0.7-0.9,1.3-0.7,2.2c0,0,0,0.1-0.1,0.1
		c-0.1,0.3-0.3,0.7-0.4,1c-0.1,0.4-0.3,0.7-0.4,1.1c0.5,0.2,0.6,0.4,0.4,0.8c-0.1,0.2-0.2,0.4-0.4,0.6c-0.3,0.3-0.5,0.7-0.4,1.1
		c-0.4,0.2-0.9-0.5-1.1,0.2l0.8,0.8c-0.2,0.1-0.4,0.2-0.5,0.3c-0.3,0.6-0.6,1.3-0.9,2c-0.1,0.3-0.1,0.6,0.1,0.8c0.5-1,1-2,1.5-3
		l0.2,0.1c-0.2,0.5-0.3,0.9-0.5,1.4c-0.2,0.5-0.2,0.6,0.2,0.9c0.1,0,0.1,0.1,0.2,0.2c-0.3,0-0.5-0.4-0.8-0.1
		c-0.3,0.2-0.1,0.5-0.1,0.8c0,0.4-0.1,0.9-0.2,1.3l0.6,1c0.3,0,0.5,0.1,0.8,0.1c0.6,0.3,1.2,0.6,1.8,0.9c0.1-0.3,0.2-0.6,0.6-0.5
		c0.4,0.1,0,0.6,0.4,0.7l1.2-0.6l-0.1-0.7c0.8,0.2,0.3,0.8,0.3,1.3c0.2-0.2,0.4-0.5,0.5-0.4c0.5,0.1,0.5-0.3,0.6-0.6l-0.5,0
		c0.3-0.4,0.3-1.1,1-0.9c0.1,0,0.1-0.1,0.2-0.2c0.3-0.2-0.1-0.5,0-0.7c0.2-0.4,0.4-0.8,0.6-1.2c0,0,0.1,0,0.1,0l0.1,0.5
		c0.2-0.4,0.3-0.7,0.6-1.1c0.7-0.9,1.2-2,1.6-3.1c0.5-1.7,1.2-3.4,1.9-5.1c0.3-0.5,0.5-1,0.9-1.5c0.4-0.5,0.7-1.1,0.8-1.7
		c0.4-1.4,0.8-2.8,0.9-4.2c0-0.1,0-0.3,0-0.4c-0.3,1-0.9,2-1.6,2.8c-0.1-0.6,0.9-1,0.2-1.8l-0.4,0.8c0.1-0.9,0.5-1.7,1.1-2.3
		c0.2-0.2,0.4-0.5,0.5-0.8c0-0.1-0.1-0.3-0.1-0.4C43.8,9.4,44,10,43.4,10c0.1-0.2,0.1-0.4,0.2-0.5c0.1-0.2,0.3-0.3,0.1-0.6l-0.8,1.1
		l-0.6-1c-0.4-0.1-0.8-0.3-1.2-0.4c0,0-0.1,0-0.2,0.2l0.5,0.5L40,9.6c0.1-0.6-0.1-0.8-0.5-0.9C39.3,8.8,39,9,38.7,9.1
		c-0.3,0-0.7,0.2-0.8,0.5c-0.2,0.3-0.4,0.5-0.7,0.2c-0.1,0-0.2,0-0.3,0.1c-0.1,0.4,0.6,0.5,0.3,0.8c-0.1,0.1-0.5,0-0.8,0l-0.4,0.5
		c0.6,0.6,0.6,0.6,0,1.1l-0.4-0.6l-0.5,0.6l1,0.4c-0.5,0.2-0.9,0.6-1.1,1.1c-0.2,0.4-0.5,0.8-0.8,1.3c-0.3,0.4-0.6,0.9-0.8,1.3
		c-0.2,0.3-0.4,0.7-0.7,1.1C32.5,17.3,32.5,17.1,32.5,16.9l-0.2-0.6L32,17L32.5,16.9z M25.7,53.4c0.8-1.3,1.4-2.6,2.1-3.9
		c0-0.2,0.1-0.3,0.3-0.4c0.4-0.2,0.6-0.6,0.8-1c0.2-0.5,0.5-1,0.7-1.5c1-0.2,1.1-0.4,1.3-2l0.6,0.2c-0.9,1.8-1.8,3.5-2.7,5.3
		c0.3-0.3,0.6-0.7,0.8-1.1c0.7-1.2,1.4-2.4,2.1-3.7c0.6-1.1,1.1-2.2,1.6-3.3c0,0,0-0.1-0.1-0.2C33,41.9,32.9,42,32.9,42
		c-0.1,0.1-0.2,0.1-0.2,0.2c-0.2-0.6-0.2-0.7,0.3-1.2l0.5,0.3c0.8-1.1,1.4-2.2,1.8-3.4L34,37.8l0.1,0.7l-0.9,0
		C32.9,39,32.9,39,32,39.4l-0.2-0.3l-0.6,0.1c-0.1-0.6,0.4-0.6,0.6-0.9c0,0.1,0,0.2,0,0.2c0,0.1,0,0.1,0,0.2
		c0.5-0.1,0.5-0.1,0.5-0.8c-0.9,0-1.7-0.8-2.7-0.6c-0.2,0-0.4-0.1-0.6-0.2c-0.4-0.4-1.1-0.6-1.6-0.5l3.3,1.5l-0.2,0.4
		c-0.5-0.3-1-0.6-1.6-0.8c-0.5-0.1-0.9-0.4-1.3-0.7c-0.4-0.4-0.4-0.4-1.1-0.4l1.1,0.7c-0.3,0.4-0.5,0.2-0.8,0.1
		c-0.4-0.3-0.6-0.2-0.8,0.2c-0.2,0.4-0.3,0.9-0.4,1.3c-0.6,0.2-0.8-0.9-1.5-0.4l0.5,0.6c-0.4,0.4-0.6-0.2-1-0.1
		c0.2,0.6-0.5,0.6-0.7,1l0.3,0.4c-0.3,0-0.6,0-0.7,0.1c-0.1,0.2-0.1,0.5-0.1,0.6c-0.3,0.2-0.6,0.4-0.8,0.6c-0.3,0.3-0.1,0.6,0.1,0.9
		l-1,0.9l0.1,0.7l-0.4-0.2c-0.6,0.7-0.9,1.6-1.1,2.4l0.5-0.5c-0.3,0.4-0.2,0.9-0.8,0.9c-0.1,0-0.3,0.2-0.3,0.4
		c-0.3,0.5-0.5,1-0.7,1.6c0,0.1,0,0.1,0,0.2l0.6,0.2c0.1,0.6,0,1.3-0.4,1.8c-0.4,0.7-0.8,1.4-1,2.1c-0.4,0.7-0.8,1.5-1.3,2.2
		c-0.4-0.1-0.4-0.3-0.2-0.6c0.2-0.3,0.3-0.6,0.2-1c-0.7,1.4-1,2.8-1.1,4.3c-0.1,0-0.1,0.1-0.1,0.2c-0.1,0.1-0.1,0.2-0.1,0.4
		c0.5,0.3,0.5,0.3,0.3,1.1l0.8-0.1c-0.4,1.2-1.1,2.1-1.4,3.3c0.5-0.8,0.6-0.8,1.7-0.1l0.9-1.4c-0.3,0.6-0.3,1.3-0.2,1.9
		c0.2,0.7,0.3,0.7,0.9,0.3c0.3-0.2,0.5-0.4,0.8-0.6c-0.1,0.4-0.3,0.7-0.6,1.1c-0.3,0.5-0.4,0.5-1,0.3c-0.1,0-0.2-0.1-0.3-0.1
		c-0.1,0.4-0.1,0.4,0.1,0.5c0.4,0.1,0.6,0.5,0.5,0.9c0,0.1-0.1,0.2-0.2,0.3c-0.1,0.1-0.1,0.2-0.2,0.2c0.4-0.4,0.8-0.8,1.1-1.3
		c0.4-0.6,0.8-1.3,1.2-1.9c0.3-0.5,0.6-0.9,0.9-1.4c0.7-1.1,1.4-2.2,2-3.3c0.7-1.4,1.6-2.7,2.8-3.7c0.1-0.1,0.1-0.2,0.2-0.3l0.3-0.6
		C25.4,53.2,25.6,53.3,25.7,53.4c-0.6,0.6-1.1,1.3-1.4,2.1c0.2-0.1,0.4,0,0.5-0.1C25.1,54.7,25.4,54,25.7,53.4z M24.2,27.9
		c-0.4,0.6-0.7,1.1-1.1,1.5c-0.3,0.4-0.3,1,0.1,1.3c1,1.3,2.2,2.4,3.5,3.2c1.1,0.8,2.4,1.3,3.7,1.6c1.7,0.4,3.4,0.5,5.1,0.3
		c1.2-0.3,2-1.3,2-2.5c0-0.3-0.2-0.6-0.5-0.5C36.6,33,36.2,33,35.7,33c-1.5,0.3-3.1,0.2-4.6-0.2c-0.4-0.1-0.7-0.2-1-0.4
		c-0.6-0.3-1.2-0.5-1.7-0.8L27.3,34l-0.4-1l-0.4,0.4c0.2-0.9,0.4-1.7,1.3-2c-0.4-0.6-0.6-0.6-1-0.1c-0.2,0.2-0.3,0.5-0.4,0.7
		c-0.1,0.3-0.2,0.5-0.4,0.9c-0.2-0.4-0.3-0.8-0.1-1.2c0.1-0.6,0.5-0.8,1-1.1l-1.4-1.2l-1.3,1.8c0-0.8,0.3-1.5,0.9-2.1
		c-0.7,0.2-0.9,0.8-1.4,1.2c-0.6-0.4-0.6-0.4-0.3-0.9c0.1-0.3,0.3-0.5,0.5-0.7c0.2-0.1,0.3-0.3,0.5-0.4c0,0,0.1-0.1,0.1-0.2
		L24.2,27.9z M12.8,70.3c-0.4,0.8-0.5,1-0.9,1.2c-0.5,0.2-0.6,0.4-0.4,0.9c0.2,0.7,0.2,0.7,0.9,1c0.1,0,0.1,0,0.2,0
		c0.2-0.2,0.3-0.5,0.7-0.5c0.3,0,0.6-0.1,0.8-0.4c0.7-0.7,1.3-1.5,1.6-2.4c-0.3,0.1-0.7,0.3-1,0.3c-0.3,0-0.7,0-1,0l-0.1,0.8
		L12.8,70.3z M44.8,4.7c0,0.1,0.1,0.3,0.1,0.4c0.3,0.5,0.6,0.6,1,0.5c0.4-0.1,0.6-0.5,0.5-0.9c-0.1-0.8-0.1-1.5-0.2-2.2
		C46.2,2.2,46,2,45.9,1.8c-0.6,0.4-1,1.1-1.2,1.7c0,0.1,0.2,0.3,0.3,0.3c0.2,0,0.4,0,0.4,0.2c0,0.2-0.1,0.3-0.2,0.4
		C45,4.6,44.9,4.7,44.8,4.7z M22,60.2l0-1c0.7-0.4,1.2-1.1,1.5-1.9L22.9,58l-0.3-0.4c-0.3,0.4-0.6,0.8-0.8,1.2
		c-0.2,0.4-0.4,0.9-0.5,1.3L22,60.2z M20.3,41.2l0.1,0.9l-0.6,0.1c0,0.4-0.3,0.8,0,1.2c0.6-0.5,0.7-1.3,1.1-1.9L20.3,41.2z
		 M17.3,48.3c-0.6,1-1.1,2.1-1.3,3.2C16.6,50.5,17.1,49.4,17.3,48.3L17.3,48.3z M16.1,52.6c0.4,0,0.8-0.3,1-0.7c0.1-0.4,0-0.7,0-1.1
		l-0.1,0L16.1,52.6z M15.5,62.7c-0.8-0.3-0.9-0.3-0.9,0.4c0,0.3,0,0.5-0.1,0.8l0.2,0.1L15.5,62.7z M29,25.5c-0.5,0.5-0.8,1.2-0.8,2
		C28.6,26.9,28.9,26.2,29,25.5z M26.7,53.8c0.9-1.1,0.9-1.1,0.7-1.6L26.7,53.8z M29.9,23l0.4-0.2c-0.1-0.1-0.2-0.3-0.3-0.4
		c-0.1-0.1-0.3-0.2-0.5-0.3l-0.1,0.1c0.1,0.1,0.2,0.2,0.3,0.3C29.8,22.7,29.9,22.9,29.9,23z M12.5,67.9c-0.4,0.3-0.7,0.8-0.6,1.3
		l0.4,0.1C12,68.8,12.6,68.4,12.5,67.9z M37.6,28.9c0.6-0.7,0.6-0.7,0.5-1.2L37.6,28.9z M36.4,31c0.7-0.3,0.7-0.3,0.7-1.1L36.4,31z
		 M42.8,7.3c-0.4-0.5-0.5-0.6-1.2-0.5L42.8,7.3z M29.2,24.5c-0.1,0.1-0.2,0.2-0.3,0.3c0,0.1,0.1,0.3,0.1,0.4
		c0.1-0.1,0.3-0.1,0.4-0.2C29.5,24.8,29.5,24.6,29.2,24.5z M40.1,5c0.6-0.2,0.6-0.3,0.8-1L40.1,5z M15.6,63.5
		c-0.2,0.2-0.4,0.4-0.1,0.6c0,0,0.3,0,0.3-0.1C16,63.9,15.8,63.7,15.6,63.5z M43.1,5.4c0.2-0.5,0.1-0.6-0.5-0.6L43.1,5.4z
		 M20.3,61.1c0.8-0.2,0.8-0.2,0.6-0.7L20.3,61.1z M19.1,44.6c0.5-0.5,0.5-0.5,0.5-1.1L19.1,44.6z M32.2,37.7l0.9,0.3
		c-0.1-0.3-0.4-0.5-0.7-0.4C32.3,37.6,32.3,37.7,32.2,37.7L32.2,37.7z M18.5,41.2l-0.1-0.1l-0.5,1.1l0.1,0L18.5,41.2z M30.4,20.5
		c-0.3,0.2-0.5,0.3-0.3,0.6C30.6,21.1,30.6,20.8,30.4,20.5z M14.4,55.5c-0.3,0.1-0.5,0.3-0.3,0.8L14.4,55.5z M15.9,63.4
		c0.1-0.1,0.3-0.2,0.4-0.3c0,0-0.1-0.2-0.1-0.2c-0.1,0.1-0.2,0.1-0.4,0.2C15.8,63.1,15.8,63.2,15.9,63.4z M33.7,14.6l-0.2-0.1
		L33.2,15l0.2,0.1L33.7,14.6z M32.6,16c0.4-0.2,0.4-0.2,0.4-0.6L32.6,16z M29.7,22c0.1-0.1,0.3-0.1,0.3-0.1c0-0.1,0-0.2,0-0.3
		c-0.1,0-0.2,0-0.3,0.1C29.7,21.7,29.7,21.8,29.7,22z M21.8,40l-0.2,0c0,0.1,0,0.3,0,0.4c0.1,0,0.1,0,0.2,0L21.8,40z M12.2,62
		c0.4-0.4,0.4-0.5,0.1-0.5L12.2,62z M17.8,49.9c0.2-0.1,0.3-0.1,0.3-0.2c0-0.1,0-0.2,0-0.5L17.8,49.9z M20.2,62.2
		c0-0.1-0.1-0.2-0.1-0.2c-0.1,0-0.1,0-0.2,0c0,0.1,0,0.2,0.1,0.2C20,62.2,20,62.2,20.2,62.2z M25.3,37.8l0.1-0.3l-0.5-0.1l0,0.2
		L25.3,37.8z M22.3,36.4l0.1,0.1c0.1,0,0.2-0.1,0.2-0.2c0-0.1,0.1-0.2,0.1-0.3l-0.1,0L22.3,36.4z M13.6,56.9l0.2,0.1l0.2-0.5l-0.1,0
		L13.6,56.9z M26.1,55L26.1,55l-0.4,0.5l0.1,0.1L26.1,55z M32.5,38.5l0.1,0.3c0.1,0,0.2-0.1,0.2-0.1c0,0,0-0.1,0-0.2L32.5,38.5z
		 M14.7,65.3l0.1,0.1l0.2-0.3L14.9,65L14.7,65.3z M12.8,68.4l0.1,0.1l0.2-0.3L13,68.1L12.8,68.4z M13.9,61.3l0.1,0l0.2-0.4L14,61
		L13.9,61.3z M22.2,61L22.2,61l-0.3,0.2l0.1,0.1L22.2,61z M14.2,60.3l0.2,0.1l0.1-0.3l-0.2,0L14.2,60.3z M14.1,58.8
		c0.1,0.1,0.1,0.2,0.2,0.2c0,0,0.1-0.1,0.1-0.1c0-0.1-0.1-0.2-0.1-0.2L14.1,58.8z M24.9,56.7L24.9,56.7l0.2-0.3l0,0L24.9,56.7z
		 M13.4,59l0-0.1c-0.1,0-0.2,0-0.3,0c0,0,0,0.1,0,0.1L13.4,59z M41.4,5.4l0.1,0.1l0.3-0.4L41.7,5L41.4,5.4z"/>
	<path d="M9.8,77.2c-0.3,0.6-0.2,0.9,0.3,1.2c0.6,0.3,1.2,0.8,1.8,1.1c1,0.5,2,1.2,2.8,2c0.2,0.2,0.4,0.5,0.6,0.7
		c0.3,0.3,0.2,0.9-0.1,1.1c-0.1,0.1-0.3,0.2-0.5,0.2c-0.4,0-0.8,0-1.2-0.1c-0.6-0.2-1.2-0.5-1.8-0.7c-1.4-0.6-2.6-1.4-3.7-2.4
		c-0.9-0.8-2-1.6-3.1-2.2c-1-0.5-2.1-0.6-3.1-0.4c-0.2,0-0.4,0.1-0.5,0.2c-0.8,0.4-0.8,1.1-0.1,1.6c0.6,0.3,1.3,0.6,2,0.8
		c1.4,0.5,2.7,0.9,4.1,1.4c0.8,0.3,1.5,0.5,2.3,0.8c1.4,0.5,2.8,1.2,4,2.1c0.4,0.3,0.8,0.7,1.1,1.2c0.3,0.4,0.2,1-0.2,1.3
		C14.3,87,14.1,87,14,87.1c-0.4,0.1-0.8,0-1.1-0.1c-1.5-0.6-2.9-1.3-4.4-2c-0.9-0.4-1.8-0.9-2.8-1.3c-0.3-0.1-0.7-0.2-1.1-0.1
		c-0.2,0-0.3,0.2-0.6,0.3c0.4,0.5,0.8,0.9,1.4,1.1c0.8,0.3,1.5,0.6,2.3,0.9c0.3,0.1,0.6,0.4,0.7,0.7c0.3,0.7,0.1,1.1-0.7,1.2
		c-0.4,0-0.7,0-1.1,0c-0.2,0-0.5,0-0.6-0.1c-0.5,0.7,0.3,0.9,0.4,1.4c-0.6,0.1-1.2-0.4-1.2-1c0-0.2,0-0.4,0.1-0.5
		C5.5,87.1,5.8,87,6,87c0.4-0.1,0.8,0,1.2-0.1c0.2,0,0.3-0.2,0.5-0.3c-0.1-0.2-0.2-0.4-0.3-0.5c-0.8-0.4-1.5-0.6-2.3-1
		c-0.5-0.2-1-0.5-1.4-0.8c-0.4-0.3-0.2-0.9,0.4-1.2c0.5-0.2,1-0.3,1.5-0.1c1.2,0.4,2.3,0.9,3.3,1.6c0.4,0.2,0.8,0.5,1.2,0.6
		c0.7,0.3,1.4,0.7,2.2,0.9c0.4,0.1,0.7,0.2,1.1,0.3c0.2,0.1,0.5,0.1,0.6-0.2c0.1-0.2,0.1-0.5,0-0.7c-0.3-0.4-0.6-0.8-1-1.1
		c-0.8-0.5-1.6-1-2.4-1.4c-0.9-0.4-1.9-0.7-2.9-1c-1.9-0.7-3.8-1.3-5.7-2c-0.4-0.2-0.8-0.3-1.1-0.5c-0.6-0.2-0.9-0.8-0.8-1.4
		c0.1-0.6,0.6-0.9,1.1-1.1c0.3-0.1,0.7-0.2,1-0.2c1.3,0,2.6,0.3,3.6,1c0.8,0.5,1.6,1.1,2.4,1.7c0.6,0.6,1.3,1.1,2,1.6
		c1.2,0.6,2.4,1.1,3.6,1.7c0.3,0.2,0.8,0.1,1-0.1c0.3-0.4-0.1-0.7-0.3-0.9c-0.6-0.5-1.3-1-2-1.5c-0.9-0.6-1.9-1.1-2.8-1.7
		c-0.2-0.1-0.3-0.3-0.5-0.4C8.8,77.8,9,77.4,9.8,77.2z"/>
	<path d="M31.1,42.9c0.8-1.4,1.6-2.7,2.3-4.1c0.7,0.2,0.8,0.4,0.4,1.1c-0.3-0.1-0.6-0.2-0.8,0.2c-0.4,0.8-0.9,1.6-1.4,2.3
		c-0.1,0.2-0.2,0.4-0.4,0.5L31.1,42.9z"/>
	<path d="M15.7,60.5c0.5-0.9,0.6-2,1.3-2.8c-0.4,1-0.7,1.9-1.1,2.9L15.7,60.5z"/>
	<path d="M20.6,45l0.1,0.6C20.2,45.6,20.2,45.6,20.6,45z"/>
	<path d="M19.4,60.7l0.5-0.7l0.1,0.1L19.4,60.7L19.4,60.7z"/>
	<path d="M24.3,40c-0.1,0.1-0.2,0.1-0.4,0.1c0,0-0.1-0.1-0.1-0.2c0.1-0.1,0.2-0.1,0.3-0.2C24.2,39.9,24.3,40,24.3,40z"/>
	<path d="M22.5,42.8l-0.2,0.1c0-0.1,0-0.2,0-0.3c0,0,0.1-0.1,0.2,0C22.4,42.6,22.4,42.7,22.5,42.8z"/>
	<path d="M18.9,48c0-0.1-0.1-0.2,0-0.2c0,0,0.1-0.1,0.2-0.1c0,0.1,0.1,0.1,0,0.2C19.1,47.9,19,47.9,18.9,48z"/>
	<path d="M18.1,58.6L18,59l-0.1,0L18.1,58.6L18.1,58.6z"/>
	<path d="M19.4,60.7l-0.3,0.6l-0.1,0C19.2,61.1,19.3,60.9,19.4,60.7L19.4,60.7z"/>
	<path d="M33.1,18c0.5-1.4,2.6-4.6,3.3-5c0,0.4-0.2,0.9-0.6,1.1c-0.5,0.4-0.9,0.9-1.1,1.5c-0.4,0.8-1,1.5-1.5,2.3
		C33.2,18,33.1,18,33.1,18z"/>
	<path d="M38.7,10.1c-0.1,0.2-0.2,0.3-0.3,0.5c-0.2,0.2-0.3,0.3-0.5,0.5c-0.3-0.4,0-0.8,0.1-1.1C38.1,9.9,38.4,10,38.7,10.1z"/>
	<path d="M37.3,12c-0.1,0.3-0.3,0.7-0.8,0.7l0.6-0.8L37.3,12z"/>
	<path d="M42.8,16l-0.2,0.8C42.4,16.4,42.4,16.4,42.8,16z"/>
	<path d="M42.7,10.2l-0.3,0.5l-0.1,0c0-0.1,0-0.2,0.1-0.3c0.1-0.1,0.1-0.2,0.2-0.3L42.7,10.2z"/>
	<path d="M32.2,30.6l0.5-0.5l0,0.6L32.2,30.6z"/>
	<path d="M33,29.1l0.3-0.8l0.1,0L33,29.1L33,29.1z"/>
	<path d="M39,24.3l-0.2,0.6l-0.1,0c0-0.1,0-0.2,0-0.3C38.7,24.5,38.8,24.4,39,24.3L39,24.3z"/>
	<path d="M36.5,34.6c-0.2,0.4-0.5,0.6-0.8,0.4c-0.5-0.3-1.1-0.2-1.5,0.2l-0.1-0.1l0.9-1.3l0.4,0.6c0.3-0.3,0.7-0.2,1,0
		C36.4,34.5,36.4,34.6,36.5,34.6z"/>
	<path d="M31.2,34.9c0-0.6,0.4-1.2,0.9-1.5C32.2,34,31.9,34.5,31.2,34.9z"/>
	<path d="M26.1,30.3l-1,1.5C25.1,31,25.4,30.5,26.1,30.3z"/>
	<path d="M30.4,33.2c0.3,0.6-0.2,0.8-0.3,1.3C29.8,34.1,29.8,34.1,30.4,33.2z"/>
	<path d="M28.2,33.9c0.3-0.5,0.3-1.1,0.8-1.5l0.2,0.1L28.3,34L28.2,33.9z"/>
	<path d="M32.8,35.2c0.1-0.5,0.2-1,0.8-1.2C33.5,34.5,33.2,34.9,32.8,35.2z"/>
	<path d="M15.4,69.7c-0.4-0.6-0.4-0.7,0.2-1.1c0,0,0.1,0.1,0.1,0.1c0.1,0.1,0.1,0.3,0.2,0.4C15.7,69.3,15.6,69.5,15.4,69.7
		L15.4,69.7z"/>
	<path d="M14.4,68.1l-0.7,1C13.7,68.7,13.8,68.4,14.4,68.1z"/>
	<path d="M44.7,6.1c0.1,0.4-0.2,0.6-0.5,0.8C44.1,6.4,44.4,6.3,44.7,6.1L44.7,6.1z"/>
	<path d="M43.4,6.3l0.4-0.5L44,5.9l-0.3,0.5L43.4,6.3z"/>
</g>
</svg>
