<?xml version="1.0" encoding="utf-8"?>
<!-- Generator: Adobe Illustrator 23.1.1, SVG Export Plug-In . SVG Version: 6.00 Build 0)  -->
<svg version="1.1" id="Layer_1" xmlns="http://www.w3.org/2000/svg" xmlns:xlink="http://www.w3.org/1999/xlink" x="0px" y="0px"
	 viewBox="0 0 100 92.1" style="enable-background:new 0 0 100 92.1;" xml:space="preserve">
<style type="text/css">
	.st0{fill-rule:evenodd;clip-rule:evenodd;}
</style>
<path class="st0" d="M83.3,12c-3.2-2.8-6.7-4.8-10.3-6c-4.5-1.5-8.6-2.5-12.2-3.2c-2-0.4-3.8-0.7-5.4-0.8
	c-6.8-0.7-12.5-0.4-16.9,0.8C38,2.8,37.5,3,37.1,3.1c-8.5,3-15.8,6.7-21.6,11.3c-3.4,2.6-5.3,5.7-5.8,9.3C9.3,26,9.2,28,9.2,30
	c-0.6,7.2,1.8,13.3,7.1,18.2c1.8,1.7,3.6,3.2,5.4,4.6c1.5,1.2,2.9,2.2,4.4,3.2c2.5,1.6,4.9,2.9,7.2,4c3.3,1.5,5.8,2.6,7.5,3.3
	c2.9,1.2,5.6,1.9,7.9,2.2c1.3,0.2,3.3,0.5,5.8,1c2.7,0.5,4.7,0.9,5.8,1.1c1.2,0.2,2.4,0.3,3.6,0.4c5.3,0.4,10-0.2,14.2-1.8
	c1.9-0.7,4.4-2,7.4-3.8c3.5-2.1,5.9-3.4,7.3-4c0.2-0.1,0.5-0.6,1-1.3c2.3-4.3,3.6-8.4,3.9-12.4c0.5-8.7-1.4-16.3-5.9-22.9
	c-2.3-3.4-4.7-6.2-7.2-8.5C84.1,12.7,83.7,12.3,83.3,12z M88,14.4c0.8,0.9,1.9,2.3,3.4,4.1c1.5,1.9,2.6,3.2,3.5,4
	c0.8,0.8,1.4,2,2,3.5c0.2,0.9,0.6,2.1,1.1,3.9c3.2,9.2,2.7,18-1.6,26.4c-5.8,11-13.6,17.7-23.4,20.4c-1.6,0.4-4.1,1.2-7.4,2.4
	c-0.6,0.2-1.2,0.4-1.8,0.5c-1.6,0.4-3.5,0.7-5.5,0.9c-1.6,0.1-3.9,0.3-6.8,0.5c-3.6,0-6.7-0.4-9.1-1.1c-0.8-0.2-1.4-0.2-1.9-0.1
	c-0.6,0.1-1,0.6-1.5,1.3c-1.4,2.4-3.6,4.3-6.4,5.6c-0.6,0.3-1.6,0.8-2.9,1.6c-1.3,0.7-2.3,1.2-3,1.6c-3.3,1.4-7.1,2.1-11.4,2.1
	c-1.7,0-3.3-0.6-4.7-1.7c-1.6-1.3-1.6-2.6-0.1-3.9c0.9-0.7,1.8-1.7,2.9-3c1.2-1.4,2.2-2.4,2.8-3.1c1.4-1.5,2.8-3.7,4-6.6
	c0.3-0.9,0.4-1.5,0.3-2c-0.2-0.6-0.6-1.2-1.5-1.6c-4.6-2.2-8.1-5-10.5-8.6C7,59.3,5.8,57.4,4.9,56c-0.7-1-1.2-1.9-1.5-2.5
	c-0.1-0.3-0.3-0.6-0.4-0.8c-0.9-1.8-1.7-3.4-2.2-5c-0.4-1-0.7-2.1-0.9-3.1c-0.8-3.5-0.5-7.6,0.9-12.4C1,31.2,1.4,30.1,1.8,29
	C4,23,8.4,17.4,14.9,12.3c4.9-3.8,10.9-7,18-9.6c2-0.8,4.1-1.5,6.4-2.1c3.1-0.9,7.8-1.2,14-0.8c4.9,0.4,10,1.4,15.5,3
	c2.5,0.7,5,1.6,7.6,2.6c2.1,0.8,4.2,2.1,6.3,3.9c0.2,0.1,0.4,0.3,0.6,0.5C84.4,10.7,86,12.3,88,14.4z M52.5,42.6
	c-0.1-0.4-0.1-0.7-0.1-1c0-0.4,0.1-0.7,0.3-1c0.8,0.6,1.3,1.3,1.7,2.2c0.4,0.9,0.4,1.9,0.1,2.8c-0.4,1.4-1.5,2-3.4,2l-3.1-0.1
	c-1.5-0.1-2.6-0.4-3.2-1.1c-0.7-0.6-1-1.6-1.1-3c0-1.3,0.3-2.3,1.1-3.1c0.8-0.9,1.8-1.4,3.1-1.5c0.7-0.1,1.7,0,3,0.2
	c0.6,0.1,0.8,0.4,0.8,0.9c0,0.4-0.3,0.6-0.9,0.7c-1.8,0.1-2.8,0.2-3,0.3c-1,0.2-1.6,0.7-1.8,1.3c-0.2,0.6-0.1,1.4,0.4,2.2
	c0.3,0.5,1.1,0.9,2.3,1.1c1.3,0.2,2.3,0.1,3-0.2c0.6-0.2,1-0.6,1.1-1.2C52.7,43.9,52.7,43.3,52.5,42.6z M67.6,39.9
	c2.2-1.2,4.3-1.1,6.4,0.1c-0.4,0.5-0.9,0.8-1.6,0.8c-0.4,0-0.9,0-1.5-0.1c-1.2,0.1-2.1,0.5-2.7,1.2c-0.6,0.7-0.8,1.4-0.7,2.1
	c0.2,0.7,0.7,1.3,1.5,1.7c0.7,0.3,1.7,0.5,3,0.5c1.5,0,2.1-0.7,2.1-2c0-0.9,0-1.4,0-1.4c0.1-0.5,0.4-0.9,1-1.1c1,2,1.3,3.6,0.7,4.7
	c-0.6,1.2-2,1.7-4.1,1.7c-1.1,0-2.1-0.1-3-0.3c-1.2-0.2-2-0.6-2.5-1c-0.4-0.4-0.7-1.1-0.8-2.1C65,42.5,65.8,40.9,67.6,39.9z
	 M74.5,69.8c-0.3,0.3-0.7,0.7-1.1,1.2c-0.4,0.4-0.9,0.6-1.4,0.7c-0.1,0.5-0.6,1.2-1.4,2.1c-0.8,0.8-1.3,1.6-1.3,2.3
	c1.9-0.5,3-0.9,3.4-1.1c1.2-0.6,2.1-1.4,2.6-2.5c0.1-0.3,0.4-0.7,1-1.1c0.7-0.6,1.1-0.9,1.2-1c0.6-0.5,1.1-0.9,1.3-1.2
	c0.5-0.5,0.8-1.1,1-1.8C77.5,67.8,75.8,68.6,74.5,69.8z M76.5,73.2c4.1-0.8,6.9-3.7,8.4-8.5c-1.3,1-2.8,2.3-4.4,4.1
	C79.6,69.8,78.3,71.3,76.5,73.2z M88.4,64.7c0.4-0.2,0.8-1,1.3-2.5c-0.6,0-1.4,0.5-2.3,1.3c-0.9,0.8-1.8,1.2-2.5,1.2
	C86.8,64.9,88,64.9,88.4,64.7z M86.1,66.9c0.1-0.1,0.1-0.2,0.1-0.3c0-0.1-0.1-0.1-0.3-0.1c-0.1,0-0.3,0.2-0.6,0.6
	c-0.2,0.2-0.1,0.4,0.5,0.4L86.1,66.9z M54.2,69.7c-0.5,0.8-1.2,2-2.2,3.7c-0.9,1.4-1.8,2.4-2.9,3.1c0,0.2-0.1,0.6-0.4,1.1
	c-0.2,0.4-0.3,0.8-0.1,1.1C49,78.9,49.4,79,50,79c0.9,0,1.4,0.1,1.5,0.1c0.8,0.1,1.3-0.3,1.5-1c0.1-0.7,0.5-1.5,1.2-2.2
	c0.9-0.7,1.5-1.3,1.8-1.7l3.7-4.1c-0.1,0.9-0.3,1.7-0.7,2.4c-0.2,0.3-0.6,0.8-1.3,1.5c-1.3,1.2-2.4,2.3-3.3,3.4
	c-0.5,0.6-0.4,1,0.1,1.5c0.6,0.4,1.6,0.4,3,0.2c1.5-0.2,2.3-0.6,2.5-1.1c0.3-1,0.9-2,1.8-3c0.8-0.7,1.4-1.3,1.9-1.7
	c0.2-0.3,0.4-0.5,0.6-0.7c0.5-0.4,0.9-0.7,1.1-1c0.4-0.5,0.6-1,0.6-1.7c-0.7,0-1.5,0-2.3-0.1c-2-0.1-4.4-0.5-7.2-1.1
	c-3.3-0.8-5.4-1-6.4-0.7c-0.9,0.3-2.6,1.8-4.9,4.5c-0.4,0.5-1,1.2-1.7,2.2c-0.6,0.9-1.2,1.4-2,1.7v-0.1c-0.1,0-0.1,0-0.2,0.1
	c0.5-1.3,1.5-2.8,3.1-4.5c1.8-2,3-3.5,3.5-4.5c-0.6-0.3-2.1-0.7-4.4-1.3c-1.7-0.5-3.1-1-4.1-1.4c-1.7-0.7-4.1-1.9-7.4-3.6
	c-3.2-1.6-5.6-2.8-7.3-3.5c0,0,0.1-0.1,0.1-0.1c0,0-0.1,0-0.1,0.1c-0.4-0.5-0.9-1-1.4-1.5c-0.9-0.9-2-1.7-3.3-2.5
	c0,0.7-0.2,1.3-0.7,2c0,0.1-0.2,0.2-0.4,0.5c-0.2,0.3-0.6,0.6-1,1c-1,1.1-2.6,2.6-4.7,4.6c0,1.1,0.3,2.1,1.1,2.9
	c0.3,0.3,1.1,0.9,2.6,1.8c2.1-4.4,4.7-7.3,7.7-8.8l0.1,0.1c-0.1,0.4-0.6,1-1.6,2c-2.1,2.3-3.3,3.8-3.7,4.3c-1,1.4-1.5,2.3-1.4,2.6
	c0.1,0.4,0.8,1,2.3,2c0.7,0.4,1.3,0.7,1.7,0.7c0.5,0,1-0.3,1.6-1l3.6-4.4c0.5-0.7,0.9-1.1,1.1-1.3c0.4-0.5,1.1-0.8,1.8-0.9
	c-1.7,2.5-3.4,4.7-5.2,6.6c-1.6,1.7-2.6,3.4-3,5.1c-0.4,1.9-1.3,3.8-2.8,5.7c-2.3,3.1-4.5,5.6-6.3,7.3c-0.8,0.8-1.1,1.5-1.1,2.1
	c0.1,0.5,0.7,1,1.8,1.4c1.5,0.6,3.3,0.8,5.5,0.4c4.1-0.7,8.4-2.4,13-5c2.2-1.3,3.9-2.9,5-4.9c1.2-2.1,2.6-3.3,4.2-3.9v0.1
	c0,0,0.1,0,0.2-0.1c-0.1,1,0.4,1.7,1.5,2c1.1,0.3,2.2,0.2,3.2-0.2c0.8-0.3,1.6-1,2.6-1.9C50,74.1,51.8,71.9,54.2,69.7z M65.2,73
	c-0.6,0.5-1,1-1.5,1.4c-0.6,0.5-1,1-1.3,1.3c-0.2,0.2-0.5,0.5-0.9,0.9c-0.3,0.4-0.3,0.9,0,1.3c0.7,0,1.5,0,2.2-0.1
	c2.2-0.4,4-1.6,5.3-3.8c0.7-1.4,1.7-2.2,2.8-2.5c0-0.2,0.1-0.5,0.3-0.8c0.2-0.4,0.3-0.8,0.2-1.1c-0.5,0-1.2,0-2.2-0.1
	c-0.9,0-1.5,0.3-2.1,0.8C67.4,71.1,66.5,72,65.2,73z M2.3,45.1c0.1,1.5,0.6,2.6,1.3,3.2c0.4-0.1,0.7-0.2,1-0.2
	c0-0.9,0.4-1.9,1.1-2.8c0.9-1,1.5-1.8,1.9-2.2C8.5,42,8.9,41,9,40c0-1-0.3-2.1-1.1-3.2C5.6,39.1,4,40.8,3,42
	C2.4,42.6,2.2,43.7,2.3,45.1z M2,41.3c2.9-2.5,4.6-4.5,5.3-6.2C8.1,33.3,8,31.5,7,29.6c-0.8,1.2-2.2,2.9-4.1,5.1
	C1.6,36.8,1.3,39,2,41.3z M8.6,21.6c-1.8,2.3-3,4-3.7,5c-1,1.9-1.7,4-1.8,6c2.1-2.2,3.5-3.8,4.1-4.9C8.3,25.9,8.8,23.9,8.6,21.6z
	 M7.2,45.3c-0.9,1.3-1.8,2.2-2.5,2.7h0.1c-0.5,0.9-0.5,1.9-0.2,2.8c0.3,0.4,0.7,1.1,1.5,2c0.1,0.1,0.2,0.3,0.3,0.4l3.5-4
	c1.3-1.5,2-2.5,2-3.1c-0.1-0.6-0.8-1.8-2.1-3.5C9.1,43.1,8.2,44,7.2,45.3z M26.3,37.9c0.4,0.1,1,0.1,1.6-0.1
	c0.7-0.2,1.3-0.3,1.6-0.3c1.2,0.1,2,0.4,2.5,0.8c0.5,0.4,0.8,1.2,0.9,2.3c0.1,1.5,0,2.5-0.3,3c-0.4,0.6-1.3,0.9-2.6,1.1
	c-0.5,0-1.3,0.2-2.4,0.4c-0.9,0.1-1.6,0.1-2.2-0.1c-0.4-0.1-0.9-0.2-1.7-0.3c-0.7-0.1-1-0.6-1.1-1.3c-0.2-1.2-0.3-2.1-0.3-2.7
	c0-0.9,0.3-1.8,0.9-2.5C23.9,37.4,24.9,37.3,26.3,37.9z M25.8,43.2c0.7,0.1,1.3,0.1,1.8,0.1c0.8-0.1,1.4-0.2,1.8-0.3
	c0.8-0.2,1.2-0.7,1.3-1.6c0.3-2.4-1-3.1-4-2.3c-1.6,0.4-2.2,1.3-2,2.8C24.9,42.7,25.2,43.1,25.8,43.2z M36.7,65.1
	c-0.7,1.5-1.8,3.1-3.3,4.8c-0.2,0.2-1.5,1.6-4,4.2c-3.4,3.5-5.9,6.2-7.6,7.9c-1.2,1.3-2.8,3.4-4.6,6.4c-0.1-1.4,0.6-3,2-5
	c1.6-1.9,3.6-4.1,6.2-6.8c4-4.1,6.2-6.3,6.4-6.5c0.9-1.2,1.7-2.1,2.2-2.7C34.9,66.4,35.8,65.6,36.7,65.1z M43.4,68.2
	c-1.8,1.5-4,3.6-6.5,6.3c-3.5,3.8-5.7,6.1-6.5,6.9c0.1-0.7,0.3-1.3,0.7-1.8c0.5-0.4,0.8-0.8,1-1c3.9-4.4,6.5-7.2,7.7-8.4
	C41,68.7,42.2,68.1,43.4,68.2z M20,53.5c-0.2-0.2-0.5-0.4-0.7-0.7c-0.5-0.4-1-0.9-1.7-1.6c-0.2-0.1-1-0.9-2.2-2.3
	c-0.9-0.9-1.8-1.3-2.6-1.1c-0.8,0.2-1.6,0.8-2.3,1.7C10,50,9.3,51,8.5,52.2l-0.2,0.2c-0.1,0.1-0.3,0.2-0.4,0.3c-0.9,1-0.9,2.1,0,3.2
	c0.1,0.1,0.2,0.2,0.4,0.4c0.3,0,0.6-0.1,0.9-0.4c0.1-0.1,0.2-0.2,0.3-0.4c0.4-0.5,0.8-0.7,1.2-0.7v-0.1c0.3-0.8,0.7-1.5,1-2
	c0.1-0.3,0.3-0.5,0.4-0.7c0.7-1,1.7-1.7,3-2.2c-0.5,1.1-1.1,2.1-1.8,3c-0.7,0.8-1.6,1.5-2.5,2c0.1,0.3,0,0.5-0.2,0.8
	c-0.1,0.1-0.2,0.2-0.2,0.4c0,0.1-0.1,0.2-0.2,0.3c-0.7,1.2-0.7,2.3,0.1,3.4c0.7,1.1,1.8,1.7,3.2,1.8V61c1.5-2,2.8-3.6,4.1-5
	C18.4,55,19.2,54.2,20,53.5z M28,83.2l0.8-1l0.2-0.1v0.6c-0.5,0.5-0.8,0.8-0.9,0.8c-0.1,0.1-0.2,0.1-0.2-0.1
	C27.9,83.4,28,83.3,28,83.2z"/>
</svg>
