<?xml version="1.0" encoding="utf-8"?>
<!-- Generator: Adobe Illustrator 23.1.1, SVG Export Plug-In . SVG Version: 6.00 Build 0)  -->
<svg version="1.1" id="Layer_1" xmlns="http://www.w3.org/2000/svg" xmlns:xlink="http://www.w3.org/1999/xlink" x="0px" y="0px"
	 viewBox="0 0 100 125" style="enable-background:new 0 0 100 125;" xml:space="preserve">
<g>
	<g>
		<path d="M53.6,36.3c-2.8,5.9-4.9,12.2-6.4,18.8c-4.4,7.7-8.1,16-10.9,24.8c6.8-14.3,14.8-27.5,24-39.4
			C58.3,38.6,56,37.2,53.6,36.3z"/>
	</g>
	<g>
		<path d="M58.3,27.9c2.8,1.4,5.3,3.3,7.6,5.7C72.2,26,79,19.1,86.2,12.9c-6.3,7.4-12.4,14.9-18.3,22.8c2.6,3.2,4.7,7,6.2,11.2
			c5.2-4.3,9.8-9.6,13.7-15.7c-3.6-0.4-7.1-0.2-10.6,0.4c4-2.3,8.3-3.6,12.7-3.9c1.3-2.2,2.4-4.5,3.5-6.8c-2.8,0.3-5.6,0.9-8.3,1.9
			c2.9-2.3,6.2-3.9,9.5-4.7C97,12.5,98.8,6.3,100,0c-9,0.9-17.7,4.4-25.5,10.1c-0.3,3-0.3,6.1-0.2,9.1c-1-2.2-1.8-4.6-2.3-7.1
			C66.8,16.4,62.2,21.7,58.3,27.9z"/>
	</g>
	<g>
		<path d="M62.5,42.9c-3.7,5.1-7.3,10.2-10.9,15.5c5.4-1.3,10.7-3.5,15.6-6.6C66.2,48.5,64.5,45.4,62.5,42.9z"/>
	</g>
	<path d="M70.8,62.1c0,16.2-10.3,29.3-23.1,29.3c-12.7,0-23.1-13.1-23.1-29.3c0-16.2,10.3-29.3,23.1-29.3
		C60.5,32.8,70.8,45.9,70.8,62.1L70.8,62.1z M68.3,84.1C78,69.7,76.5,48,65.1,35.8C53.7,23.6,36.6,25.5,27,40
		c-8.5,12.8-8.5,31.4,0,44.1l-3.7,4.8l-1-1.2l-23.8,30.2l5.2,6.6l23.8-30.2l-1-1.3l3.7-4.7C41.7,100.5,58.8,98.6,68.3,84.1z"/>
</g>
</svg>
