<?xml version="1.0" encoding="utf-8"?>
<!-- Generator: Adobe Illustrator 23.1.1, SVG Export Plug-In . SVG Version: 6.00 Build 0)  -->
<svg version="1.1"
	 id="Layer_1" xmlns:cc="http://creativecommons.org/ns#" xmlns:dc="http://purl.org/dc/elements/1.1/" xmlns:inkscape="http://www.inkscape.org/namespaces/inkscape" xmlns:rdf="http://www.w3.org/1999/02/22-rdf-syntax-ns#" xmlns:sodipodi="http://sodipodi.sourceforge.net/DTD/sodipodi-0.dtd" xmlns:svg="http://www.w3.org/2000/svg"
	 xmlns="http://www.w3.org/2000/svg" xmlns:xlink="http://www.w3.org/1999/xlink" x="0px" y="0px" viewBox="0 0 762.9 790.2"
	 style="enable-background:new 0 0 762.9 790.2;" xml:space="preserve">
<g transform="translate(-28.512,-185.6293)">
	<path d="M155.5,185.6c-8.9,0-14.7,9.6-10.5,17.5l27.5,52.5c2,3.9,6,6.4,10.4,6.4h453.9c4.4,0,8.4-2.5,10.4-6.4l27.6-52.5
		c4.1-7.9-1.7-17.5-10.5-17.5L155.5,185.6L155.5,185.6z M174.1,290.1c-27.8,69.8-79.8,131.3-145.6,188.1
		C175.6,616.9,294,784.9,390,975.8V607.9C370.1,600,356,580.7,356,558c0-29.8,24.1-53.9,53.9-53.9c29.9,0,54.1,24.2,54.1,53.9
		c0,22.7-14.1,42-33.9,49.9v367.9C526,785,644.4,617,791.4,478.2c-66-56.8-117.9-118.2-145.7-188H410v-0.1L174.1,290.1L174.1,290.1z
		"/>
</g>
</svg>
