<?xml version="1.0" encoding="utf-8"?>
<!-- Generator: Adobe Illustrator 23.1.1, SVG Export Plug-In . SVG Version: 6.00 Build 0)  -->
<svg version="1.1" id="Layer_1" xmlns="http://www.w3.org/2000/svg" xmlns:xlink="http://www.w3.org/1999/xlink" x="0px" y="0px"
	 viewBox="0 0 100 96.4" style="enable-background:new 0 0 100 96.4;" xml:space="preserve">
<g>
	<g>
		<g>
			<g>
				<path d="M20.4,44.5c-0.5-0.1-0.9-0.6-1.4-0.8c-0.2-0.1-0.5-0.1-0.7-0.1l-0.7-0.5c-0.3-0.2-0.3-1.2,0-1.4c2.5,0.5,5,1.8,5.5,4.3
					C22.3,45.4,21.5,44.8,20.4,44.5 M95,57.2c2.3,0.3,4.1-0.2,5-1.6c-0.9-2.3-3.7,0.5-5.2-1.2c-0.5-0.6-0.9-1-0.7-1.9
					c-0.6-2,0.8-2.4,1.8-3c0.1-2.5-3.4-1.1-4.1-3.3c0.2-0.9-0.3-2.1,0.5-2.7c1.8-0.5,3.5-1.1,3.9-2.9c-0.3-0.5-0.2-1.1-0.8-1.2
					c-1.7-0.1-3.3-0.1-4.1,1c-2.6-0.8-1.9-4.6-3.6-6.3c-1.5-1.2,0.5-2.3,0.6-3.5c-0.2-0.5-0.1-1.1-0.8-1.2c-2.4,0.7-2.6-1.5-4.7-1.1
					c-1-1.2-3.3-0.8-4.7-1.5c-1-1.2,0.5-2.9,1.1-4.1C79,21.7,79.4,21,80,20.7c2-1,0.6-4.6,2.1-5.9c0.2-1.5,2-2.3,1.4-3.7
					c-0.8-1.2-1.8,0-2.6,0.6c-0.7,1.9-1.4,3.7-1.6,5.9c-1.8,1.4-1.6,4.1-3.7,5.2c-1.9,0.5-2.4-1-3.8-1.4c-2.3-1.9,0.1-4.5,0.1-6.9
					c-3.8-4.1-3.4,3.4-6.5,3.9c-2.7,0.6-4.3-0.7-5.6-2.1c-1.5-1.6-2.7,0.6-4.5,0.2c-2.1,0.2-1.8-2.1-2.6-3.4c-0.6-0.9-1.8-0.7-3-0.7
					c-2.1-0.1-0.6-2.9-2-3.6c-0.7-1.6-1.9-2.9-2.1-4.7c-1.2-0.8-0.1-2.8-2-3.5s-0.8,0.7-0.6,1.5c1.2,2,2.1,4.5,3,6.8
					c-0.7,3.4,3.7,3.3,2.9,6.8c0.1,0.7-0.5,1.1-1.1,0.9c-1.2-1.4-2.4-0.3-3.8,0c-1.5-0.8-3.7-1.4-3.6-3.7c-1.1-1.1-1-3.2-2.1-4.3
					C38,7,37.4,5.6,37.3,4c-0.2-0.3-0.9-1.1-1.4-0.5c-1.1,1.6,0.2,3.2,0.7,4.7c0.9,0.6,1,2,1.4,3.2c0.6,0.5,0.1,1.5-0.3,1.8
					c-0.2,0.9,0.3,1.4,0.6,1.9c-0.5,2.3,1.9,3,1.1,5.1c-1.2,1-1.6-1-2.9-0.7c-1.1-0.3-1.6,0.5-1.7,1.4c-0.5,0.5-0.7,1-1.5,1
					c-2.3,0.1-2.1,2.6-3,4.1c-2.4,1.9-2.4-2-4.1-2.8c0.3-3.9-3.6-4.6-4.1-8c-0.6-0.3-1-1.2-1.7-0.6c0.2,1.8,1.5,2.9,2.1,4.4
					c-1,3.9,1.6,5.3,2.9,7.6c4.1,3.4-2.8,2.3-2.4,5.4c0.1,1.5-0.5,3.5,0.5,4.3c0,1.5,0.1,2.6,0.3,3.8c-1.1,1.2-2.7,0-4.1,0
					c-0.6-0.2-1.4-0.5-1.5-1.2c-0.6-0.5-1.1-0.8-2-0.7c-2.6-1-4.4-3.3-7-4.3c-2.5,0.6-3.9-1.6-6.1-2.5C3.1,31.3,3.1,31.2,3,31
					c-0.5-0.7-1.4-1.8-2.3-1.5c-1.7,0.5-0.2,1.9,0.6,2.4c-0.1,0.1,0.1,0.2,0.6,0.2c0.1,0,0.2,0,0.3,0c1,0.2,1.7,0.9,2.5,1.4
					c1.1,1,3.2,1.4,2.7,3.5c2.3,0.8,3.8,2.7,6,3.7c0.8,0.6,2.8,2.8,4.2,3.7c0.1,0.3,0.2,0.7,0.5,0.9c0.5,0.5,1.1,0.7,1.6,1
					c0.6,0.5,0.9,1,1.5,1.5c0.3,0.3,0.8,0.5,1.1,0.8c0.1,0.1,0.1,0.1,0.1,0.2c-0.2,0.3-0.5,0.6-0.7,0.9c-1.9,0.6-2.9,2.3-5.8,1.6
					c-1.1-0.8-2.9-0.7-4.4-1c-0.9,0.9-3,0.2-2.9,2.1c0.7,0.8,0.8,1.9,1.9,2.3c1.4,0,2.5-0.6,3.7-0.8c1.6,0.7,4.3-0.3,5.4,1
					c0.8,1.2-0.8,1.8-1,2.9c0,0.9,0.8,1.2,1.4,1.9c0.6,0.8,1.1,2.3,0.5,3.4c-0.7,0.5-1.2,0.8-2.3,0.7c-0.5,0.5-1.1,0.8-1.2,1.6
					c0.6,1.2,2,1.2,3.5,1.2c0.8,0,0.6,1,0.6,1.6c0.6,1.2,1.7,0,2.5,0c1,0.2,2,0.8,2.4,1.8c0,0.9,0.3,2.1-0.7,2.4
					c-2-0.2-2.7,1.9-5.2,1.1c-0.9,0.9-2.7,0.7-3.4,1.9c-0.6,0.7-1.2-0.2-1.8-0.3c-0.5,0.8-0.1,2.1-1.4,2.3c-0.1,0.6,0.2,0.9,0.7,0.9
					c2.5-0.3,3.5-2.7,6.5-2.1c0.8-0.3,1.7-0.5,2.3-1.1c1.2-0.1,2-0.8,3.5-0.6c1.1,0.5,0.1,2.5,1,3c0.8,0.3,1,1,2.3,0.8
					c0.8,0.2,1.5,0.8,1.6,1.6c0.1,0.5-0.2,0.6-0.5,0.7c0.5,3-3,2.1-3.3,4.6c0.1,0.9,0.8,1.5,1.5,1.8c2.6-0.6,3.7-4.3,6.9-3.3
					c1.4,2-1.6,3-2.1,4.8c0.8,0.2,0.9-0.3,1.4-0.6c1.2-1.7,2,0.9,3.4,0.6c1.5-1.9,3.3,1.5,4.5-0.8c0.8-0.2,1.5,0.3,1.6,0.9
					c0.2,1-0.2,1.7-0.6,2.4c0.3,1.8-2,2.1-0.8,4.1c3.9,1.5,2.6-3.5,4.6-4.8c1.1,0.7,1,2.4,2.1,2.9c2.9,0.8,1.6-2.4,3.3-2.9
					c1.9-0.6,2.4,0.9,3.3,1.7c0.2,0.8-0.5,1.1-0.6,1.7c-0.2,1.1,0.3,1.8,0.6,2.8c0.6,0.7,1.9,2,2.5,1c0.1-2-0.2-4.4,0.3-6.2
					c2.4-1.9,1.1,2.5,3,2.5c1.6-0.3,1-2.5,1.9-3.3c1.2-1.5,1.9,0.8,3.2,0.8c2.7-1.6,2.6,2.1,5.1,1.7c0.9-1.1-0.8-1.7-0.8-2.9
					c0.3-0.8,0.5-1.8,1.2-2.3c0.5,0.1,1.2-0.2,1.4,0.2c1,0,1.8,0.1,2.5-0.5c0.1-0.5,1.1-0.5,1.4,0c0.5-0.1,1.1,0.2,1.4-0.3
					c1.1-0.6,2,0.3,2.9,1c0.7,2.1,3.2,2,4.4,3.7c0.3,1.2,0.2,3,1.9,2.5c0.8-0.2,1.2-1.1,1.1-2c-0.1-0.7-0.6-1-1.1-1.2
					c-0.5-0.2-1-0.5-1.5-0.6c-1.5-1.5-2.9-3-4.5-4.2c-0.6-0.9-1.5-1.4-1.5-2.7c0.9-0.2,1.1-1,2.4-0.9c0.7-0.1,1.2-0.8,1.1-1.5
					c-0.7-1.4,1.5-1,2-1.8c2-0.8-0.9-1.8,0.6-2.9c2.8,0.5,3.6-1.7,5.1-3c-0.2-1.6-2-1.8-2.7-2.9c0.5-1,1-2.3,2-3
					c0.5,0.1,1.1-0.2,1.4,0.3c0.8,0.3,2.4,0.3,3.2,0c0.5-0.7,0.9-1.4,0.7-2.5c-0.5-1.9-3-0.7-4.3-1.6c-0.8-0.9-1.7-1.7-1.4-3.4
					C92,58.5,93.6,57.9,95,57.2"/>
			</g>
		</g>
	</g>
</g>
</svg>
