<?xml version="1.0" encoding="utf-8"?>
<!-- Generator: Adobe Illustrator 23.1.1, SVG Export Plug-In . SVG Version: 6.00 Build 0)  -->
<svg version="1.1" id="Layer_1" xmlns="http://www.w3.org/2000/svg" xmlns:xlink="http://www.w3.org/1999/xlink" x="0px" y="0px"
	 viewBox="0 0 100 46.8" style="enable-background:new 0 0 100 46.8;" xml:space="preserve">
<g>
	<path d="M99.3,26.5H86l-2.6-2.8c-0.2-0.2-0.5-0.3-0.7-0.2c-0.3,0.1-0.4,0.3-0.5,0.6l-1.8,15.2L77.6,0.6c0-0.4-0.3-0.6-0.7-0.7
		c-0.4,0-0.7,0.2-0.7,0.6l-3.4,23.4c-0.1-0.1-0.2-0.1-0.3-0.2c-0.2-0.1-0.5,0-0.7,0.1l-3.1,2.6h-6.4h-6.6l-2.6-2.8
		c-0.2-0.2-0.5-0.3-0.7-0.2c-0.3,0.1-0.4,0.3-0.5,0.6l-1.8,15.2L47.3,0.6c0-0.4-0.3-0.6-0.7-0.7c-0.4,0-0.7,0.2-0.7,0.6l-3.4,23.4
		c-0.1-0.1-0.2-0.1-0.3-0.2c-0.2-0.1-0.5,0-0.7,0.1l-3.1,2.6h-1h-5.4h-7.9l-2.6-2.8c-0.2-0.2-0.5-0.3-0.7-0.2
		c-0.3,0.1-0.4,0.3-0.5,0.6l-1.8,15.2L15.8,0.6c0-0.4-0.3-0.6-0.7-0.7c-0.4,0-0.7,0.2-0.7,0.6l-3.4,23.4c-0.1-0.1-0.2-0.1-0.3-0.2
		c-0.2-0.1-0.5,0-0.7,0.1l-3.1,2.6H0.5c-0.4,0-0.7,0.3-0.7,0.7c0,0.4,0.3,0.7,0.7,0.7h6.6c0.2,0,0.3-0.1,0.5-0.2l2.4-2.1l0.4,1.7
		c0.1,0.3,0.4,0.5,0.7,0.5c0.3,0,0.6-0.3,0.7-0.6l3-20.2l2.8,39.7c0,0.4,0.3,0.6,0.7,0.7c0,0,0,0,0,0c0.4,0,0.7-0.3,0.7-0.6l2.5-21
		l1.8,1.9c0.1,0.1,0.3,0.2,0.5,0.2h8.2h5.4h1.2c0.2,0,0.3-0.1,0.5-0.2l2.4-2.1l0.4,1.7c0.1,0.3,0.4,0.5,0.7,0.5
		c0.3,0,0.6-0.3,0.7-0.6l3-20.2l2.8,39.7c0,0.4,0.3,0.6,0.7,0.7c0,0,0,0,0,0c0.4,0,0.7-0.3,0.7-0.6l2.5-21l1.8,1.9
		c0.1,0.1,0.3,0.2,0.5,0.2h7H69h0c0.2,0,0.4-0.1,0.5-0.2l2.4-2l0.4,1.7c0.1,0.3,0.4,0.5,0.7,0.5c0.3,0,0.6-0.3,0.7-0.6l3-20.2
		l2.8,39.7c0,0.4,0.3,0.6,0.7,0.7c0,0,0,0,0,0c0.4,0,0.7-0.3,0.7-0.6l2.5-21l1.8,1.9c0.1,0.1,0.3,0.2,0.5,0.2h13.6
		c0.4,0,0.7-0.3,0.7-0.7C100,26.8,99.7,26.5,99.3,26.5z"/>
</g>
</svg>
