<?xml version="1.0" encoding="utf-8"?>
<!-- Generator: Adobe Illustrator 23.1.1, SVG Export Plug-In . SVG Version: 6.00 Build 0)  -->
<svg version="1.1" id="Layer_1" xmlns="http://www.w3.org/2000/svg" xmlns:xlink="http://www.w3.org/1999/xlink" x="0px" y="0px"
	 viewBox="0 0 24 14.1" style="enable-background:new 0 0 24 14.1;" xml:space="preserve">
<style type="text/css">
	.st0{fill-rule:evenodd;clip-rule:evenodd;}
</style>
<title>404-BROKEN-GLASS</title>
<desc>Created with Sketch.</desc>
<g>
	<g>
		<path class="st0" d="M9.4,4C9.3,4,9.1,4,8.9,4c0.2-0.2,0.3-0.3,0.4-0.4c-0.1,0-0.2,0-0.2-0.1c-0.1,0-0.1-0.1-0.2,0c0,0,0,0-0.1,0
			c-0.1,0-0.2,0-0.3,0.1C8.4,3.8,8.2,3.8,8,3.8c-0.3,0-0.5,0-0.7-0.1c-0.1,0-0.2,0-0.2,0.1C7,3.8,6.9,3.8,6.7,3.9c0-0.1,0-0.1,0-0.2
			C6.6,3.8,6.6,3.8,6.5,3.9c0,0-0.1,0-0.1,0c0,0,0,0,0,0c-0.2,0-0.4-0.1-0.6-0.1c-0.2,0-0.3-0.1-0.4-0.1c0,0-0.1,0-0.1,0
			c0.1,0.1,0.2,0.1,0.3,0.2C5.7,3.9,6,4.1,6.2,4.3c0.2,0.1,0.4,0.2,0.6,0.4C6.9,4.7,7,4.7,7,4.8c0.1,0,0.1,0.1,0,0.2
			c0,0,0-0.1,0-0.1l0,0c0,0,0,0.1,0,0.1c0.1,0.1,0.1,0.3,0.1,0.4c0,0.1,0,0.1,0,0.2c0,0.1,0,0.1,0.1,0.1c0.1,0,0.1,0.1,0.1,0.1
			c0,0.1,0,0.2-0.1,0.3C7.1,6.1,7,6.2,7,6.3c0,0,0,0,0,0C6.9,6.3,7,6.4,7,6.5l0,0c0,0,0,0,0.1,0c0,0,0,0,0,0
			c0.1,0.1,0.1,0.1,0.2,0.2c0,0,0.1,0.1,0.1,0c0-0.1,0-0.1,0-0.2c0-0.1,0-0.2,0.1-0.2c-0.1,0.2,0,0.4,0.1,0.5c0,0,0-0.1,0-0.1
			c0,0-0.1,0-0.1,0c0,0,0-0.1,0.1-0.1c0.1,0,0.1-0.1,0.1-0.1C7.8,6.3,7.8,6.2,7.9,6c0-0.1,0-0.1-0.1-0.1c0,0,0-0.1,0-0.1
			c0-0.1,0-0.1,0.1-0.1c0,0,0.1,0,0.1,0c0,0,0.1,0,0.1,0.1c0,0.1,0.1,0.1,0.1,0.2C8.6,6,8.8,6.1,9,6.3c0.2,0.1,0.4,0.2,0.5,0.3
			c0,0,0.1,0,0.1,0c0.1-0.1,0.3-0.2,0.4-0.3c0.1-0.1,0.3-0.2,0.3-0.4c0,0,0,0,0,0c0,0,0,0,0-0.1c0,0,0,0,0,0c0,0,0,0,0,0
			c0.1,0,0.1-0.1,0.2-0.1C10.5,6,10.2,6.4,9.9,6.8c0.1,0,0.1,0.1,0.2,0.1c0.2,0.1,0.3,0.2,0.5,0.3c0.1,0,0.2,0.1,0.3,0.1
			c0.1,0,0.1,0.1,0.2,0.1C11.7,7.7,12.4,8,13,8.3c0.6,0.3,1.3,0.6,1.9,0.9c0.4,0.2,0.8,0.4,1.2,0.6c0.1,0,0.1,0.1,0.2,0.1
			c0.1,0,0.2,0.1,0.2,0.1c0.2,0.1,0.3,0.2,0.5,0.3c0.1,0,0.2,0.1,0.2,0.1c0,0,0,0,0,0l0,0c0,0,0,0,0,0l0,0l0,0l0,0
			c-0.4-0.2-0.7-0.4-1.1-0.6c-0.4-0.2-0.9-0.4-1.3-0.7c-0.6-0.3-1.1-0.6-1.7-0.8c-0.4-0.2-0.8-0.4-1.2-0.6c-0.4-0.2-0.8-0.4-1.3-0.6
			c-0.2-0.1-0.4-0.2-0.5-0.3c-0.1,0-0.1-0.1-0.2,0c-0.1,0-0.1,0-0.1-0.1c0-0.1,0-0.1-0.1-0.1C9.4,6.6,9.1,6.4,8.9,6.3
			c-0.1,0-0.2-0.1-0.3-0.1c0,0,0,0-0.1,0.1c0.1,0,0.1,0,0.1,0c0,0.1,0.1,0.1,0.2,0.2c-0.1,0-0.1,0-0.2,0c0,0,0,0,0,0
			c0.1,0,0.2,0.1,0.3,0.1c0,0-0.1,0-0.1,0c0,0-0.1,0-0.1,0.1c0,0.1,0.1,0.1,0.1,0.1c0,0,0.1,0,0.1,0c0,0,0-0.1,0-0.2
			c0.1,0,0.2,0.1,0.3,0.1c0.1,0,0.1,0,0.2,0c0.1,0,0.1,0,0.1,0.1c0,0.4-0.1,0.7-0.4,0.9c0,0-0.1,0-0.1,0c-0.2,0-0.3,0-0.5,0
			c-0.1,0-0.1,0-0.1-0.1c0.2,0,0.3-0.1,0.5-0.2c-0.1,0-0.1-0.1-0.1-0.1c0-0.1,0.1-0.1,0.1-0.2c-0.1,0-0.2-0.1-0.2-0.1
			c0,0-0.1-0.1,0-0.1c0,0,0,0-0.1,0C8.5,7,8.5,7.1,8.4,7c0,0-0.1,0-0.1,0c0,0,0,0,0,0.1c0,0,0,0.1,0,0.1c0,0,0,0.1,0,0.1
			c0,0,0.1,0,0,0.1c0,0.1,0.1,0.1,0.1,0.1c-0.1,0,0,0.2-0.1,0.2c0,0,0.1-0.1,0.1-0.1c0,0,0-0.1-0.1-0.1c0-0.1-0.1-0.1-0.1-0.2
			c0,0,0,0,0,0c0,0-0.1,0-0.1,0c0-0.1,0-0.2,0-0.2C8,7,8,7,8,6.9c0,0,0-0.1-0.1-0.1c0,0-0.1,0-0.1,0c0,0,0,0.1,0,0.1
			c0,0,0,0.1,0,0.1c0,0,0,0,0,0.1c0,0,0,0,0,0C8,7.2,8,7.4,8.1,7.5c0,0-0.1,0-0.2,0c0,0,0,0.1,0,0.1c0,0,0,0,0,0.1c0,0,0-0.1,0-0.2
			c0,0,0,0-0.1,0c0,0,0,0,0,0c0,0.1,0,0.2,0,0.3c0,0,0.1,0.1,0.1,0.1l0,0c0,0,0,0,0,0c0,0,0,0,0,0c0,0,0,0,0,0l0,0c0,0,0,0.1,0,0.1
			c0,0,0.1,0.1,0.1,0.1c0,0,0,0,0-0.1c0,0,0.1,0.1,0.1,0.1c0,0,0,0,0,0c0-0.1,0-0.2,0-0.2c0,0,0,0,0,0c0,0.1,0,0.2,0.1,0.3
			c0,0.1,0,0.2,0,0.3c0,0,0,0-0.1,0c0,0,0,0.1,0.1,0.1c0,0,0,0.1,0,0.1c0,0.1,0,0.2,0,0.3c0,0.2,0,0.3,0,0.5c0,0.2,0,0.4,0,0.5
			c0,0.2,0.1,0.5,0.1,0.7c0,0.2,0,0.4,0.1,0.6c0,0.3,0.1,0.6,0.1,0.9c0,0.3,0.1,0.5,0.1,0.8c0.1,0.2,0.1,0.5,0.2,0.7
			c0,0.1,0.1,0.2,0.1,0.4c0,0,0-0.1-0.1-0.1c-0.1-0.3-0.2-0.7-0.3-1c-0.1-0.4-0.2-0.8-0.2-1.2c0-0.3-0.1-0.5-0.1-0.8
			c0-0.5-0.1-1-0.1-1.5c0,0,0-0.1,0-0.1c0-0.2-0.1-0.3-0.1-0.4c0,0.1,0,0.1,0,0.2C8.1,9.1,7.8,9,7.7,8.9c0.1,0,0.2,0,0.3,0
			c0,0,0,0,0,0c0,0,0,0,0,0C8,8.7,8,8.7,7.9,8.6c0,0,0,0-0.1-0.1c-0.1-0.1-0.1-0.2,0-0.4l0,0c0-0.1,0-0.1,0-0.2
			C7.8,8,7.7,8.1,7.5,8.1c0,0-0.1,0-0.2-0.1c0.1-0.1,0.2-0.2,0.2-0.3c0,0,0,0,0,0c0,0,0,0,0,0c-0.1,0-0.1-0.1-0.1-0.2
			c0,0,0-0.1-0.1-0.1c0,0-0.1-0.1-0.1-0.1c0-0.1-0.1-0.1-0.2-0.2C7,7,7,7,7,6.9c0,0,0,0,0.1-0.1c0,0-0.1,0-0.1,0c0,0,0,0,0.1,0
			c0,0,0,0-0.1,0C6.7,7,6.6,6.9,6.5,6.7c0,0-0.1,0.1-0.1,0.1c0,0,0,0.1-0.1,0.1C6.3,7,6.3,7.1,6.4,7.1c0,0,0.1,0,0.1,0
			c-0.1,0.1-0.2,0-0.3-0.1C6.1,7.2,5.9,7.4,5.8,7.6C5.6,7.8,5.4,7.9,5.3,8.1C4.9,8.5,4.5,8.8,4.1,9.2C4,9.3,3.9,9.4,3.8,9.5
			c0,0-0.1,0.1-0.1,0.2c0,0.2-0.1,0.3-0.2,0.4c-0.1,0.1-0.1,0.2-0.1,0.3c-0.2,0.5-0.4,1-0.7,1.5c-0.1,0.3-0.3,0.6-0.4,0.9
			c0,0,0,0,0,0.1c0.1-0.3,0.3-0.5,0.4-0.8c0.3-0.6,0.5-1.2,0.8-1.8C3.5,10,3.5,9.8,3.5,9.7c0,0,0-0.1,0.1-0.1
			c0.1-0.1,0.3-0.3,0.3-0.4C4,9.1,4.1,9,4.1,8.9c0.1-0.2,0.3-0.3,0.4-0.5c0.1-0.1,0.1-0.1,0.2-0.2c0.1,0,0.2,0,0.3,0
			c0.1,0,0.1,0,0.2-0.1c0-0.2,0.1-0.3,0.1-0.5c0,0-0.1,0-0.1,0.1c0,0,0,0,0,0c0.1-0.1,0.1-0.1,0.2-0.2c0-0.1,0.1-0.2,0.1-0.3
			C5.6,7.1,5.6,7,5.7,7c0,0-0.1,0-0.1,0c0,0,0,0,0,0c0.1-0.1,0.1-0.3,0.1-0.4c0-0.1-0.1-0.1-0.2-0.1C5.1,6.5,4.7,6.6,4.3,6.7
			c-0.3,0-0.6,0.1-0.8,0.1c0,0,0,0,0,0c0.2,0,0.4,0,0.6-0.1c0.4,0,0.9-0.1,1.3-0.2c0.1,0,0.1-0.1,0.2-0.1c0,0,0-0.1-0.1-0.2
			c0.1-0.1,0-0.1-0.1-0.1c0,0-0.1,0-0.1,0c0,0,0,0.1,0,0.1C5,6.2,5,6.2,5,5.7l0,0C4.9,5.6,4.9,5.5,4.8,5.4C4.7,5.3,4.6,5.2,4.6,5.2
			C4.3,4.9,4,4.5,3.8,4.2c0,0-0.1-0.1-0.1-0.1c0.1,0.1,0.1,0.1,0.2,0.2C4,4.4,4.1,4.5,4.3,4.6C4.4,4.8,4.6,5,4.7,5.1
			C5,5.4,5.2,5.6,5.5,5.8c0,0,0.1,0,0.2,0c0,0,0.1,0,0.1,0c0-0.1,0-0.1-0.1-0.2l0,0c0,0.1,0.1,0.2,0.1,0.3c0.1,0,0.1,0,0.2,0.1
			c0,0,0.1-0.1,0.1-0.1c0,0,0,0,0,0c0,0,0.1,0,0.1-0.1c0,0,0,0,0,0.1c0,0,0.1-0.1,0.1-0.1c0,0,0,0.1,0,0.1c0,0,0.1,0,0.1,0
			c0.1,0,0.1-0.1,0.2-0.1c0,0,0-0.1,0-0.1c0-0.1,0.1-0.1,0.1-0.2c0,0,0-0.1,0.1-0.1c0-0.1,0.1-0.2,0.1-0.2c0,0-0.1-0.1-0.1-0.1
			c0,0-0.1,0-0.1-0.1c0,0,0,0.1,0,0.1c0,0,0,0-0.1,0c0,0,0-0.1,0-0.1c0,0,0,0,0,0c0,0,0,0-0.1,0.1c0-0.1,0-0.1,0-0.1
			c0.1-0.1,0-0.1,0-0.2C6.5,4.6,6.3,4.5,6.2,4.5C6,4.3,5.8,4.1,5.6,4C5.3,3.8,5.1,3.6,4.8,3.4C4.7,3.3,4.5,3.2,4.3,3
			C4.1,2.8,3.8,2.7,3.6,2.5C3.3,2.3,2.9,2,2.6,1.8C1.7,1.3,0.9,0.9,0,0.4c0,0,0,0,0,0l0-0.1C0.4,0.5,0.9,0.7,1.3,1
			c0.3,0.2,0.5,0.3,0.8,0.5C2.4,1.7,2.7,1.8,2.9,2c0.2,0.1,0.4,0.3,0.6,0.4C3.8,2.6,4.1,2.8,4.4,3c0.1,0.1,0.2,0.1,0.3,0.2
			C4.9,3.4,5,3.4,5.2,3.4c0.2,0,0.3,0,0.5,0c0.1,0,0.2,0,0.3,0c0.1,0,0.1,0,0.2,0.1c0.1-0.1,0-0.2,0-0.2c0-0.1,0-0.1,0-0.2
			c0-0.1,0-0.1,0-0.1c0,0,0,0,0,0C5.9,2.9,5.7,2.7,5.5,2.5c0,0,0,0,0,0c0.1,0.1,0.2,0.2,0.3,0.3C6,2.9,6.1,3,6.2,3.1
			c0.1,0.1,0.2,0.2,0.3,0.3c0,0,0,0,0,0c0-0.1,0.1-0.2,0.1-0.3c0-0.1,0-0.1,0-0.2c0-0.1,0-0.2,0-0.2c0-0.1,0-0.2,0.1-0.3
			c0.1-0.2,0.1-0.4,0-0.6c0-0.1,0-0.1,0-0.2c0-0.1-0.1-0.3-0.1-0.4C6.5,1,6.4,0.8,6.3,0.6c0,0,0,0,0,0c0.1,0.1,0.1,0.2,0.2,0.3
			C6.6,1,6.6,1.1,6.7,1.2c0.1,0.1,0.1,0.2,0.1,0.3c0,0.1,0,0.3,0.1,0.4c0,0.1,0,0.1,0,0.2c0,0.1,0.1,0.2,0.2,0.2
			c0,0.1,0,0.1,0.2,0.1c0,0-0.1,0-0.1,0.1c0,0,0,0,0,0c0.1-0.1,0.2,0,0.3-0.2c-0.1,0-0.2,0-0.3,0.1c0,0,0,0,0,0c0,0,0.1-0.1,0.1-0.1
			c0.2,0,0.5,0,0.7,0.1c0,0,0.1,0,0.1,0.1c0,0.1,0,0.1,0,0.1c-0.1,0-0.2,0-0.2,0c-0.1,0-0.1,0.1-0.2,0.2c0,0.1-0.1,0.1-0.2,0.1
			C7.3,3,7.3,3,7.2,3c0,0.1,0,0.1,0,0.2c0,0,0,0,0.1,0c0,0,0.1,0.1,0.1,0.1c-0.1,0-0.1,0,0,0.1c0,0.1,0,0.1,0.1,0.2c0,0,0-0.1,0-0.1
			c0,0,0,0,0,0l0,0.1c0,0,0,0,0,0c0,0,0-0.1,0-0.1C7.6,3.4,7.8,3.3,8,3.3c0,0,0,0,0,0c-0.2,0-0.4,0-0.6,0.1c0.1,0,0.2-0.1,0.3-0.1
			c0.2-0.1,0.4-0.1,0.6-0.1c0,0,0,0,0.1,0c0,0,0,0,0,0c0,0-0.1,0-0.1,0c0,0,0,0,0,0.1c0.1-0.1,0.1-0.1,0.2,0c0,0,0.1,0,0.1,0
			c0.1,0,0.2,0,0.2,0c0.1,0,0.2,0,0.3,0.1c0,0,0,0,0.1,0c0.1,0,0.2,0,0.3,0c0.2,0,0.3,0,0.5,0c0.1,0,0.2-0.1,0.3-0.2
			c0-0.1,0.1-0.1,0.1-0.1c0.1-0.1,0.2-0.2,0.3-0.3c0.1,0,0.2-0.1,0.3-0.2c0.1-0.1,0.3-0.2,0.4-0.3C11.5,2.1,11.6,2,11.7,2
			c0.3-0.1,0.5-0.2,0.8-0.2c0.2,0,0.4-0.1,0.5-0.1c0.3-0.1,0.6-0.2,1-0.3c0.4-0.1,0.8-0.1,1.2-0.1c0.4,0,0.7-0.1,1.1-0.1
			c0.4-0.1,0.7-0.1,1.1-0.2C18,0.8,18.5,0.6,19,0.4c0.3-0.1,0.7-0.3,1-0.4c0,0,0.1,0,0.2,0C20,0,19.9,0.1,19.7,0.2
			c-0.4,0.2-0.8,0.3-1.2,0.5c-0.9,0.3-1.8,0.6-2.8,0.7c-0.1,0-0.2,0-0.3,0c-0.2,0-0.3,0-0.5,0.1c-0.2,0-0.5,0-0.7,0.1
			c-0.1,0-0.2,0-0.2,0c-0.2,0-0.4,0.1-0.6,0.1c-0.2,0-0.3,0.1-0.5,0.1c-0.4,0.1-0.7,0.2-1.1,0.3c-0.3,0.1-0.6,0.3-0.8,0.5
			c0,0,0,0-0.1,0.1c-0.1,0.1-0.1,0.1,0,0.3c-0.1,0-0.2,0.1-0.3,0.1c-0.1,0.1-0.2,0.1-0.3,0.2c-0.1,0.1-0.2,0.2-0.3,0.2
			c0,0,0,0-0.1,0c0,0.1,0,0.1,0.1,0.2c0,0,0,0,0,0c-0.1-0.1-0.1-0.1-0.1,0c0,0,0,0,0,0.1c0,0,0-0.1-0.1-0.1C9.9,3.6,9.9,3.6,10,3.5
			c-0.1,0-0.1,0.1-0.3,0c0,0,0-0.1,0-0.1c0,0,0-0.1-0.1-0.1c0,0-0.1,0-0.1,0C9.6,3.5,9.5,3.6,9.4,3.6c0,0-0.1,0-0.1,0
			C9.4,3.7,9.4,3.8,9.4,4c0.1-0.1,0.2-0.2,0.3-0.3c0,0,0,0,0,0.1c0,0,0,0.1,0.1,0.1c0.2,0.1,0.3,0.2,0.5,0.2c0,0,0.1,0,0.1,0
			c0.2,0.1,0.4,0.1,0.7,0.1c0.2,0,0.4,0.1,0.5,0.1c0.1,0,0.2,0,0.3,0.1c-0.1,0.1-0.3,0.1-0.4,0.2c0.1,0,0.3,0,0.4,0
			c0.1,0,0.2,0,0.4,0c0.1,0,0.2,0,0.4,0c0.2,0,0.3,0,0.5,0c0,0,0,0,0,0c0.1,0,0.1,0,0.2,0c0.1,0,0.2,0,0.3,0c0.1,0,0.2,0,0.3,0
			c0.2,0,0.3,0,0.5,0c0.1,0,0.2,0,0.3,0c0,0,0,0,0.1,0c0,0,0.1,0,0.1,0c0.1,0,0.3,0,0.4,0c0.1,0,0.3,0,0.4,0c0.2,0,0.3,0,0.5,0
			c0.1,0,0.1,0,0.2,0c0,0,0.1,0,0.1,0c0,0,0.1,0,0.1,0c0.2,0,0.3,0,0.5,0c0.2,0,0.4,0,0.5,0c0.2,0,0.4,0,0.5-0.1c0.1,0,0.2,0,0.3,0
			c0.2,0,0.3-0.1,0.5-0.1c0.1,0,0.3,0,0.4,0c0.2,0,0.4-0.1,0.6-0.1c0.1,0,0.3,0,0.4,0c0.1,0,0.2,0,0.3,0c0.1,0,0.3,0,0.4-0.1
			c0.2-0.1,0.3,0,0.5-0.1c0.1,0,0.3,0,0.4-0.1C22,4,22.1,4,22.3,3.9c0.2,0,0.4-0.1,0.7-0.1c0.2,0,0.5-0.1,0.7-0.1
			c0,0,0.1-0.1,0.1-0.1c0.1,0,0.1,0,0.2-0.1c0,0.2,0,0.2-0.1,0.2c-0.4,0.1-0.7,0.1-1.1,0.2c-0.8,0.1-1.6,0.3-2.4,0.4
			c-0.4,0.1-0.8,0.1-1.1,0.1c-0.4,0-0.7,0.1-1.1,0.1c-0.7,0.1-1.4,0.1-2,0.2c-0.4,0-0.9,0.1-1.3,0.1c-0.1,0-0.2,0-0.3,0
			c-0.1,0-0.2,0-0.3,0c-0.1,0-0.2,0-0.3,0c-0.3,0-0.7,0-1,0c-0.4,0-0.8,0-1.2,0c-0.2,0-0.4,0-0.5,0.1C11.1,4.9,11.1,5,11,5
			c0,0.1-0.1,0.1-0.1,0.2c0,0-0.1,0.1-0.1,0.1c0,0,0,0,0,0.1c0,0,0,0,0,0c0.1-0.2,0.1-0.3,0.2-0.5c0,0,0,0,0,0
			c-0.1,0-0.2,0.1-0.3,0.1c-0.1,0-0.3,0.1-0.4,0.2c0,0-0.1,0-0.1,0c0,0-0.1,0-0.1,0C9.8,5.1,9.7,5,9.5,4.8C9.4,4.8,9.3,4.6,9.2,4.5
			c0,0-0.1,0-0.1-0.1c0,0,0-0.1-0.1-0.1c0.1,0,0.1-0.1,0.2-0.1c0.1,0,0.2,0,0.2,0c-0.1,0.1-0.2,0-0.3,0.1c0.1,0.1,0.2,0.2,0.3,0.3
			c0.1,0,0.1,0.1,0.1,0.1c0,0,0.1,0,0.1,0l0,0l0,0l0,0c0-0.1,0.1-0.1,0.2-0.1c0.1,0,0.1,0,0.2,0c0,0,0,0,0,0
			c0.1-0.1,0.3-0.1,0.4-0.2c0,0,0,0,0,0c-0.3-0.1-0.5-0.1-0.7-0.3c0,0-0.1,0-0.1,0.1c0,0,0,0,0,0l0.1-0.1l0,0c0,0-0.1,0-0.1,0
			C9.5,4.1,9.4,4.1,9.4,4L9.4,4L9.4,4z M8.9,2.7C8.8,2.8,8.7,2.9,8.6,2.9c-0.1,0-0.2,0-0.4,0c0.2-0.1,0.4-0.2,0.6-0.3
			C8.9,2.5,8.9,2.7,8.9,2.7z M9.4,4L9.4,4L9.4,4C9.4,4,9.4,4,9.4,4z"/>
	</g>
</g>
</svg>
