<?xml version="1.0" encoding="utf-8"?>
<!-- Generator: Adobe Illustrator 23.1.1, SVG Export Plug-In . SVG Version: 6.00 Build 0)  -->
<svg version="1.1" id="Layer_1" xmlns="http://www.w3.org/2000/svg" xmlns:xlink="http://www.w3.org/1999/xlink" x="0px" y="0px"
	 viewBox="0 0 100 99.7" style="enable-background:new 0 0 100 99.7;" xml:space="preserve">
<style type="text/css">
	.st0{display:none;}
	.st1{display:inline;stroke:#FF00FF;stroke-width:0.25;stroke-miterlimit:10;}
</style>
<g class="st0">
	<rect x="7" y="-18.3" class="st1" width="86" height="86"/>
</g>
<g>
	<g>
		<path d="M50,0c4.5,0,9,0.6,13.3,1.8c4.3,1.2,8.3,2.9,12,5c3.6,2.2,7,4.8,10.1,7.9c3.1,3.1,5.7,6.4,7.9,10.1c2.2,3.6,3.8,7.6,5,12
			C99.4,41,100,45.5,100,50c0,3.9-0.4,7.7-1.3,11.4c-0.9,3.7-2.1,7.3-3.8,10.5c-1.6,3.3-3.6,6.4-5.9,9.3s-4.9,5.5-7.8,7.8
			c-2.9,2.3-6,4.2-9.3,5.9c-3.3,1.6-6.8,2.9-10.5,3.8c-3.8,0.9-7.6,1.3-11.4,1.3c-4.5,0-9-0.6-13.3-1.8c-4.3-1.2-8.3-2.9-12-5
			c-3.6-2.2-7-4.8-10.1-7.9c-3.1-3.1-5.7-6.4-7.9-10.1c-2.2-3.6-3.8-7.6-5-12C0.6,59,0,54.5,0,50c0-7,1.4-13.6,4.1-19.8
			c2.7-6.2,6.5-11.7,11.4-16.4l1.5,1.6C12.3,19.9,8.7,25.1,6.1,31S2.2,43.3,2.2,50c0,4.3,0.6,8.6,1.7,12.7c1.1,4.1,2.7,7.9,4.8,11.4
			c2.1,3.5,4.6,6.7,7.5,9.6c2.9,2.9,6.1,5.4,9.6,7.5c3.5,2.1,7.3,3.7,11.4,4.8c4.1,1.1,8.4,1.7,12.7,1.7s8.6-0.6,12.7-1.7
			c4.1-1.1,7.9-2.7,11.4-4.8c3.5-2.1,6.7-4.6,9.6-7.5c2.9-2.9,5.4-6.2,7.5-9.6c2.1-3.5,3.7-7.3,4.8-11.4c1.1-4.1,1.7-8.4,1.7-12.7
			c0-4.3-0.6-8.5-1.7-12.5c-1.1-4.1-2.7-7.9-4.7-11.3c-2-3.5-4.4-6.7-7.3-9.6c-2.9-2.9-6-5.4-9.4-7.5C71.3,7,67.6,5.3,63.5,4.1
			s-8.2-1.8-12.4-2v16.3h-2.2V0C49.3,0,49.7,0,50,0z M52.6,51.1h-3L20.2,21.7l1.5-1.5L52.6,51.1z"/>
	</g>
</g>
</svg>
